G04*
G04 #@! TF.GenerationSoftware,Altium Limited,Altium Designer,24.1.2 (44)*
G04*
G04 Layer_Color=16711935*
%FSLAX44Y44*%
%MOMM*%
G71*
G04*
G04 #@! TF.SameCoordinates,A8F9B381-EDA8-4368-A6AD-9EAFAD04DD4A*
G04*
G04*
G04 #@! TF.FilePolarity,Positive*
G04*
G01*
G75*
%ADD10C,0.2000*%
%ADD13C,0.1000*%
D10*
X207160Y131710D02*
X321160D01*
X207160D02*
Y180710D01*
X321160D01*
Y131710D02*
Y180710D01*
X236500Y817250D02*
Y877250D01*
Y817250D02*
X296500D01*
Y877250D01*
X236500D02*
X296500D01*
D13*
X886800Y795060D02*
X913200D01*
X886800D02*
Y952460D01*
X913200D01*
Y795060D02*
Y952460D01*
X882200Y755250D02*
X920300D01*
Y244750D02*
Y755250D01*
X882200Y244750D02*
X920300D01*
X882200D02*
Y755250D01*
X79700Y244750D02*
X117800D01*
X79700D02*
Y755250D01*
X117800D01*
Y244750D02*
Y755250D01*
X374750Y461450D02*
Y483550D01*
X360250Y461450D02*
Y483550D01*
X374750D01*
X360250Y461450D02*
X374750D01*
X428900Y762250D02*
X571100D01*
X428900Y749550D02*
X441600Y762250D01*
X639750Y516450D02*
Y538550D01*
X625250Y516450D02*
Y538550D01*
X639750D01*
X625250Y516450D02*
X639750D01*
X184500Y863000D02*
Y876500D01*
X163500Y863000D02*
Y876500D01*
Y863000D02*
X184500D01*
X163500Y876500D02*
X184500D01*
M02*
