G04*
G04 #@! TF.GenerationSoftware,Altium Limited,Altium Designer,24.1.2 (44)*
G04*
G04 Layer_Color=1930808*
%FSLAX44Y44*%
%MOMM*%
G71*
G04*
G04 #@! TF.SameCoordinates,A8F9B381-EDA8-4368-A6AD-9EAFAD04DD4A*
G04*
G04*
G04 #@! TF.FilePolarity,Positive*
G04*
G01*
G75*
%ADD13C,0.1000*%
%ADD40C,0.0500*%
D13*
X362500Y472500D02*
X372500D01*
X367500Y467500D02*
Y477500D01*
X179160Y121710D02*
X349160D01*
X179160D02*
Y190710D01*
X349160D01*
Y121710D02*
Y190710D01*
X627500Y527500D02*
X637500D01*
X632500Y522500D02*
Y532500D01*
X169000Y869750D02*
X179000D01*
X174000Y864750D02*
Y874750D01*
X211000Y809250D02*
Y885250D01*
Y809250D02*
X322000D01*
Y885250D01*
X211000D02*
X322000D01*
D40*
X884300Y792560D02*
X915700D01*
X884300D02*
Y954960D01*
X915700D01*
Y792560D02*
Y954960D01*
X879700Y757750D02*
X922800D01*
Y242250D02*
Y757750D01*
X879700Y242250D02*
X922800D01*
X879700D02*
Y757750D01*
X77200Y242250D02*
X120300D01*
X77200D02*
Y757750D01*
X120300D01*
Y242250D02*
Y757750D01*
X376000Y458500D02*
Y486500D01*
X359000Y458500D02*
Y486500D01*
X376000D01*
X359000Y458500D02*
X376000D01*
X641000Y513500D02*
Y541500D01*
X624000Y513500D02*
Y541500D01*
X641000D01*
X624000Y513500D02*
X641000D01*
X190500Y860250D02*
Y879250D01*
X157500Y860250D02*
Y879250D01*
Y860250D02*
X190500D01*
X157500Y879250D02*
X190500D01*
M02*
