G04*
G04 #@! TF.GenerationSoftware,Altium Limited,Altium Designer,24.1.2 (44)*
G04*
G04 Layer_Color=16711935*
%FSLAX44Y44*%
%MOMM*%
G71*
G04*
G04 #@! TF.SameCoordinates,A8F9B381-EDA8-4368-A6AD-9EAFAD04DD4A*
G04*
G04*
G04 #@! TF.FilePolarity,Positive*
G04*
G01*
G75*
%ADD10C,0.2000*%
G36*
X315182Y86351D02*
X315275D01*
X315367Y86342D01*
X315487Y86332D01*
X315608Y86314D01*
X315876Y86268D01*
X316172Y86203D01*
X316468Y86110D01*
X316754Y85981D01*
X316763Y85972D01*
X316791Y85962D01*
X316828Y85944D01*
X316874Y85907D01*
X316939Y85870D01*
X317013Y85824D01*
X317180Y85704D01*
X317364Y85547D01*
X317549Y85362D01*
X317734Y85149D01*
X317891Y84899D01*
X317901Y84890D01*
X317910Y84862D01*
X317928Y84825D01*
X317956Y84779D01*
X317984Y84705D01*
X318012Y84631D01*
X318049Y84539D01*
X318085Y84437D01*
X318123Y84326D01*
X318160Y84206D01*
X318215Y83947D01*
X318261Y83651D01*
X318280Y83346D01*
Y83254D01*
X318270Y83189D01*
X318261Y83106D01*
X318252Y83004D01*
X318243Y82902D01*
X318215Y82782D01*
X318160Y82532D01*
X318076Y82255D01*
X318021Y82116D01*
X317956Y81987D01*
X317873Y81858D01*
X317790Y81728D01*
X317780Y81719D01*
X317771Y81700D01*
X317743Y81663D01*
X317697Y81617D01*
X317651Y81571D01*
X317586Y81506D01*
X317512Y81441D01*
X317438Y81368D01*
X317346Y81293D01*
X317235Y81220D01*
X317124Y81136D01*
X317004Y81062D01*
X316865Y80998D01*
X316726Y80924D01*
X316579Y80868D01*
X316412Y80813D01*
X316218Y81645D01*
X316227D01*
X316246Y81654D01*
X316283Y81673D01*
X316329Y81691D01*
X316384Y81710D01*
X316458Y81737D01*
X316606Y81811D01*
X316773Y81904D01*
X316939Y82015D01*
X317096Y82153D01*
X317235Y82301D01*
X317253Y82320D01*
X317290Y82375D01*
X317337Y82468D01*
X317401Y82588D01*
X317457Y82745D01*
X317512Y82921D01*
X317549Y83133D01*
X317558Y83364D01*
Y83439D01*
X317549Y83485D01*
Y83549D01*
X317540Y83623D01*
X317512Y83799D01*
X317475Y83993D01*
X317411Y84197D01*
X317318Y84409D01*
X317198Y84603D01*
Y84613D01*
X317180Y84622D01*
X317133Y84687D01*
X317059Y84770D01*
X316948Y84872D01*
X316810Y84992D01*
X316653Y85103D01*
X316458Y85204D01*
X316246Y85297D01*
X316236D01*
X316218Y85306D01*
X316190Y85315D01*
X316144Y85325D01*
X316089Y85343D01*
X316024Y85362D01*
X315867Y85389D01*
X315682Y85426D01*
X315478Y85463D01*
X315256Y85482D01*
X315016Y85491D01*
X315007D01*
X314979D01*
X314933D01*
X314877D01*
X314813Y85482D01*
X314729D01*
X314637Y85472D01*
X314535Y85463D01*
X314313Y85435D01*
X314073Y85389D01*
X313833Y85334D01*
X313592Y85260D01*
X313583D01*
X313564Y85251D01*
X313537Y85232D01*
X313491Y85214D01*
X313379Y85158D01*
X313250Y85075D01*
X313102Y84973D01*
X312945Y84844D01*
X312806Y84696D01*
X312677Y84520D01*
Y84511D01*
X312668Y84493D01*
X312649Y84465D01*
X312631Y84428D01*
X312612Y84382D01*
X312584Y84326D01*
X312529Y84197D01*
X312474Y84030D01*
X312427Y83845D01*
X312390Y83642D01*
X312381Y83429D01*
Y83364D01*
X312390Y83309D01*
Y83244D01*
X312400Y83180D01*
X312437Y83013D01*
X312483Y82819D01*
X312557Y82625D01*
X312658Y82422D01*
X312714Y82320D01*
X312788Y82227D01*
X312797Y82218D01*
X312806Y82209D01*
X312834Y82181D01*
X312862Y82144D01*
X312908Y82107D01*
X312964Y82061D01*
X313019Y82005D01*
X313093Y81959D01*
X313176Y81904D01*
X313269Y81839D01*
X313361Y81784D01*
X313472Y81728D01*
X313592Y81682D01*
X313722Y81636D01*
X313860Y81589D01*
X314008Y81552D01*
X313796Y80702D01*
X313786D01*
X313749Y80711D01*
X313694Y80730D01*
X313620Y80757D01*
X313537Y80785D01*
X313435Y80822D01*
X313324Y80868D01*
X313204Y80924D01*
X312945Y81053D01*
X312686Y81220D01*
X312557Y81321D01*
X312427Y81423D01*
X312316Y81534D01*
X312205Y81663D01*
X312196Y81673D01*
X312178Y81691D01*
X312159Y81737D01*
X312122Y81784D01*
X312076Y81858D01*
X312030Y81931D01*
X311984Y82033D01*
X311937Y82135D01*
X311882Y82255D01*
X311835Y82385D01*
X311789Y82523D01*
X311743Y82671D01*
X311706Y82828D01*
X311688Y82995D01*
X311669Y83170D01*
X311660Y83355D01*
Y83457D01*
X311669Y83531D01*
Y83614D01*
X311678Y83716D01*
X311697Y83827D01*
X311715Y83956D01*
X311762Y84224D01*
X311835Y84502D01*
X311937Y84779D01*
X312002Y84909D01*
X312076Y85038D01*
X312085Y85047D01*
X312094Y85066D01*
X312122Y85103D01*
X312159Y85140D01*
X312196Y85195D01*
X312252Y85260D01*
X312316Y85334D01*
X312390Y85408D01*
X312474Y85482D01*
X312557Y85565D01*
X312769Y85731D01*
X313019Y85889D01*
X313296Y86027D01*
X313306D01*
X313333Y86046D01*
X313379Y86055D01*
X313435Y86083D01*
X313509Y86101D01*
X313601Y86129D01*
X313703Y86166D01*
X313814Y86194D01*
X313934Y86221D01*
X314073Y86258D01*
X314360Y86305D01*
X314683Y86342D01*
X315016Y86360D01*
X315025D01*
X315062D01*
X315118D01*
X315182Y86351D01*
D02*
G37*
G36*
X318169Y77318D02*
Y76680D01*
X314027D01*
Y75811D01*
X313306D01*
Y76680D01*
X311771D01*
Y77466D01*
X313306D01*
Y80249D01*
X314027D01*
X318169Y77318D01*
D02*
G37*
G36*
X220182Y86351D02*
X220275D01*
X220367Y86342D01*
X220487Y86332D01*
X220608Y86314D01*
X220876Y86268D01*
X221172Y86203D01*
X221468Y86110D01*
X221754Y85981D01*
X221763Y85972D01*
X221791Y85962D01*
X221828Y85944D01*
X221874Y85907D01*
X221939Y85870D01*
X222013Y85824D01*
X222180Y85704D01*
X222364Y85547D01*
X222549Y85362D01*
X222734Y85149D01*
X222891Y84899D01*
X222901Y84890D01*
X222910Y84862D01*
X222928Y84825D01*
X222956Y84779D01*
X222984Y84705D01*
X223012Y84631D01*
X223049Y84539D01*
X223085Y84437D01*
X223123Y84326D01*
X223160Y84206D01*
X223215Y83947D01*
X223261Y83651D01*
X223280Y83346D01*
Y83254D01*
X223270Y83189D01*
X223261Y83106D01*
X223252Y83004D01*
X223243Y82902D01*
X223215Y82782D01*
X223160Y82532D01*
X223076Y82255D01*
X223021Y82116D01*
X222956Y81987D01*
X222873Y81858D01*
X222790Y81728D01*
X222780Y81719D01*
X222771Y81700D01*
X222743Y81663D01*
X222697Y81617D01*
X222651Y81571D01*
X222586Y81506D01*
X222512Y81441D01*
X222438Y81368D01*
X222346Y81293D01*
X222235Y81220D01*
X222124Y81136D01*
X222004Y81062D01*
X221865Y80998D01*
X221726Y80924D01*
X221579Y80868D01*
X221412Y80813D01*
X221218Y81645D01*
X221227D01*
X221246Y81654D01*
X221283Y81673D01*
X221329Y81691D01*
X221384Y81710D01*
X221458Y81737D01*
X221606Y81811D01*
X221773Y81904D01*
X221939Y82015D01*
X222096Y82153D01*
X222235Y82301D01*
X222253Y82320D01*
X222290Y82375D01*
X222337Y82468D01*
X222401Y82588D01*
X222457Y82745D01*
X222512Y82921D01*
X222549Y83133D01*
X222558Y83364D01*
Y83439D01*
X222549Y83485D01*
Y83549D01*
X222540Y83623D01*
X222512Y83799D01*
X222475Y83993D01*
X222411Y84197D01*
X222318Y84409D01*
X222198Y84603D01*
Y84613D01*
X222180Y84622D01*
X222133Y84687D01*
X222059Y84770D01*
X221948Y84872D01*
X221810Y84992D01*
X221653Y85103D01*
X221458Y85204D01*
X221246Y85297D01*
X221236D01*
X221218Y85306D01*
X221190Y85315D01*
X221144Y85325D01*
X221089Y85343D01*
X221024Y85362D01*
X220867Y85389D01*
X220682Y85426D01*
X220478Y85463D01*
X220256Y85482D01*
X220016Y85491D01*
X220007D01*
X219979D01*
X219933D01*
X219877D01*
X219813Y85482D01*
X219729D01*
X219637Y85472D01*
X219535Y85463D01*
X219313Y85435D01*
X219073Y85389D01*
X218833Y85334D01*
X218592Y85260D01*
X218583D01*
X218564Y85251D01*
X218537Y85232D01*
X218491Y85214D01*
X218379Y85158D01*
X218250Y85075D01*
X218102Y84973D01*
X217945Y84844D01*
X217806Y84696D01*
X217677Y84520D01*
Y84511D01*
X217668Y84493D01*
X217649Y84465D01*
X217631Y84428D01*
X217612Y84382D01*
X217584Y84326D01*
X217529Y84197D01*
X217474Y84030D01*
X217427Y83845D01*
X217390Y83642D01*
X217381Y83429D01*
Y83364D01*
X217390Y83309D01*
Y83244D01*
X217400Y83180D01*
X217437Y83013D01*
X217483Y82819D01*
X217557Y82625D01*
X217658Y82422D01*
X217714Y82320D01*
X217788Y82227D01*
X217797Y82218D01*
X217806Y82209D01*
X217834Y82181D01*
X217862Y82144D01*
X217908Y82107D01*
X217964Y82061D01*
X218019Y82005D01*
X218093Y81959D01*
X218176Y81904D01*
X218269Y81839D01*
X218361Y81784D01*
X218472Y81728D01*
X218592Y81682D01*
X218722Y81636D01*
X218860Y81589D01*
X219008Y81552D01*
X218796Y80702D01*
X218786D01*
X218749Y80711D01*
X218694Y80730D01*
X218620Y80757D01*
X218537Y80785D01*
X218435Y80822D01*
X218324Y80868D01*
X218204Y80924D01*
X217945Y81053D01*
X217686Y81220D01*
X217557Y81321D01*
X217427Y81423D01*
X217316Y81534D01*
X217205Y81663D01*
X217196Y81673D01*
X217178Y81691D01*
X217159Y81737D01*
X217122Y81784D01*
X217076Y81858D01*
X217030Y81931D01*
X216983Y82033D01*
X216937Y82135D01*
X216882Y82255D01*
X216835Y82385D01*
X216789Y82523D01*
X216743Y82671D01*
X216706Y82828D01*
X216688Y82995D01*
X216669Y83170D01*
X216660Y83355D01*
Y83457D01*
X216669Y83531D01*
Y83614D01*
X216678Y83716D01*
X216697Y83827D01*
X216715Y83956D01*
X216761Y84224D01*
X216835Y84502D01*
X216937Y84779D01*
X217002Y84909D01*
X217076Y85038D01*
X217085Y85047D01*
X217094Y85066D01*
X217122Y85103D01*
X217159Y85140D01*
X217196Y85195D01*
X217252Y85260D01*
X217316Y85334D01*
X217390Y85408D01*
X217474Y85482D01*
X217557Y85565D01*
X217769Y85731D01*
X218019Y85889D01*
X218296Y86027D01*
X218306D01*
X218333Y86046D01*
X218379Y86055D01*
X218435Y86083D01*
X218509Y86101D01*
X218601Y86129D01*
X218703Y86166D01*
X218814Y86194D01*
X218934Y86221D01*
X219073Y86258D01*
X219360Y86305D01*
X219683Y86342D01*
X220016Y86360D01*
X220025D01*
X220062D01*
X220118D01*
X220182Y86351D01*
D02*
G37*
G36*
X221588Y79370D02*
X221606Y79352D01*
X221616Y79315D01*
X221643Y79269D01*
X221671Y79213D01*
X221708Y79149D01*
X221800Y78991D01*
X221902Y78806D01*
X222031Y78622D01*
X222180Y78427D01*
X222337Y78233D01*
X222346Y78224D01*
X222355Y78215D01*
X222383Y78187D01*
X222411Y78150D01*
X222503Y78067D01*
X222614Y77956D01*
X222743Y77845D01*
X222891Y77725D01*
X223039Y77623D01*
X223197Y77531D01*
Y77022D01*
X216771D01*
Y77808D01*
X221773D01*
X221763Y77817D01*
X221726Y77863D01*
X221671Y77919D01*
X221606Y78011D01*
X221523Y78113D01*
X221431Y78243D01*
X221329Y78390D01*
X221227Y78557D01*
Y78566D01*
X221218Y78575D01*
X221181Y78631D01*
X221135Y78723D01*
X221079Y78834D01*
X221014Y78964D01*
X220950Y79102D01*
X220885Y79241D01*
X220830Y79380D01*
X221588D01*
Y79370D01*
D02*
G37*
%LPC*%
G36*
X314027Y79481D02*
Y77466D01*
X316893D01*
X314027Y79481D01*
D02*
G37*
%LPD*%
D10*
X303160Y100360D02*
X320160D01*
X303160Y72360D02*
Y100360D01*
Y72360D02*
X320160D01*
Y100360D01*
X208160D02*
X225160D01*
X208160Y72360D02*
Y100360D01*
Y72360D02*
X225160D01*
Y100360D01*
M02*
