G04*
G04 #@! TF.GenerationSoftware,Altium Limited,Altium Designer,24.1.2 (44)*
G04*
G04 Layer_Color=16711935*
%FSLAX44Y44*%
%MOMM*%
G71*
G04*
G04 #@! TF.SameCoordinates,A8F9B381-EDA8-4368-A6AD-9EAFAD04DD4A*
G04*
G04*
G04 #@! TF.FilePolarity,Negative*
G04*
G01*
G75*
%ADD26R,1.9282X1.9282*%
%ADD27C,1.9282*%
%ADD28R,1.6282X1.6282*%
%ADD29C,1.6282*%
%ADD30R,1.3632X1.3632*%
%ADD31C,1.3632*%
%ADD32C,7.7032*%
D26*
X900000Y810260D02*
D03*
D27*
Y835660D02*
D03*
Y861060D02*
D03*
Y886460D02*
D03*
Y911860D02*
D03*
Y937260D02*
D03*
D28*
Y742550D02*
D03*
X100000Y257450D02*
D03*
D29*
X900000Y717150D02*
D03*
Y691750D02*
D03*
Y666350D02*
D03*
Y640950D02*
D03*
Y615550D02*
D03*
Y590150D02*
D03*
Y564750D02*
D03*
Y539350D02*
D03*
Y513950D02*
D03*
Y488550D02*
D03*
Y463150D02*
D03*
Y437750D02*
D03*
Y412350D02*
D03*
Y386950D02*
D03*
Y361550D02*
D03*
Y336150D02*
D03*
Y310750D02*
D03*
Y285350D02*
D03*
Y259950D02*
D03*
X100000Y282850D02*
D03*
Y308250D02*
D03*
Y333650D02*
D03*
Y359050D02*
D03*
Y384450D02*
D03*
Y409850D02*
D03*
Y435250D02*
D03*
Y460650D02*
D03*
Y486050D02*
D03*
Y511450D02*
D03*
Y536850D02*
D03*
Y562250D02*
D03*
Y587650D02*
D03*
Y613050D02*
D03*
Y638450D02*
D03*
Y663850D02*
D03*
Y689250D02*
D03*
Y714650D02*
D03*
Y740050D02*
D03*
D30*
X422520Y741300D02*
D03*
D31*
Y715900D02*
D03*
Y690500D02*
D03*
Y665100D02*
D03*
Y639700D02*
D03*
Y614300D02*
D03*
Y588900D02*
D03*
Y563500D02*
D03*
Y538100D02*
D03*
Y512700D02*
D03*
Y487300D02*
D03*
Y461900D02*
D03*
Y436500D02*
D03*
Y411100D02*
D03*
Y385700D02*
D03*
Y360300D02*
D03*
Y334900D02*
D03*
Y309500D02*
D03*
Y284100D02*
D03*
Y258700D02*
D03*
X577480D02*
D03*
Y284100D02*
D03*
Y309500D02*
D03*
Y334900D02*
D03*
Y360300D02*
D03*
Y385700D02*
D03*
Y411100D02*
D03*
Y436500D02*
D03*
Y461900D02*
D03*
Y487300D02*
D03*
Y512700D02*
D03*
Y538100D02*
D03*
Y563500D02*
D03*
Y588900D02*
D03*
Y614300D02*
D03*
Y639700D02*
D03*
Y665100D02*
D03*
Y690500D02*
D03*
Y715900D02*
D03*
Y741300D02*
D03*
D32*
X1000000Y0D02*
D03*
X-0D02*
D03*
X1000000Y1000000D02*
D03*
X0Y1000000D02*
D03*
M02*
