G04*
G04 #@! TF.GenerationSoftware,Altium Limited,Altium Designer,24.1.2 (44)*
G04*
G04 Layer_Physical_Order=1*
G04 Layer_Color=255*
%FSLAX44Y44*%
%MOMM*%
G71*
G04*
G04 #@! TF.SameCoordinates,A8F9B381-EDA8-4368-A6AD-9EAFAD04DD4A*
G04*
G04*
G04 #@! TF.FilePolarity,Positive*
G04*
G01*
G75*
%ADD11C,0.5000*%
%ADD14C,0.2540*%
%ADD15C,5.0000*%
%ADD16R,1.3500X1.1500*%
%ADD17R,5.5000X2.0000*%
%ADD18R,1.3500X0.9500*%
%ADD19R,1.0000X1.3500*%
%ADD20R,1.0000X1.0000*%
%ADD33R,1.7250X1.7250*%
%ADD34C,1.7250*%
%ADD35R,1.4250X1.4250*%
%ADD36C,1.4250*%
%ADD37R,1.1600X1.1600*%
%ADD38C,1.1600*%
%ADD39C,7.5000*%
G36*
X1009427Y1095716D02*
X1018764Y1094331D01*
X1027919Y1092037D01*
X1036806Y1088858D01*
X1045338Y1084822D01*
X1053434Y1079970D01*
X1061015Y1074347D01*
X1068009Y1068009D01*
X1074347Y1061015D01*
X1079970Y1053434D01*
X1084822Y1045338D01*
X1088858Y1036806D01*
X1092037Y1027919D01*
X1094331Y1018764D01*
X1095716Y1009427D01*
X1096166Y1000256D01*
X1096115Y1000000D01*
Y0D01*
X1096166Y-256D01*
X1095716Y-9427D01*
X1094331Y-18764D01*
X1092037Y-27919D01*
X1088858Y-36806D01*
X1084822Y-45338D01*
X1079970Y-53434D01*
X1074347Y-61015D01*
X1068009Y-68009D01*
X1061015Y-74347D01*
X1053434Y-79970D01*
X1045338Y-84822D01*
X1036806Y-88858D01*
X1027919Y-92037D01*
X1018764Y-94331D01*
X1009427Y-95716D01*
X1000256Y-96166D01*
X1000000Y-96115D01*
X0D01*
X-256Y-96166D01*
X-9427Y-95716D01*
X-18764Y-94331D01*
X-27919Y-92037D01*
X-36806Y-88858D01*
X-45338Y-84822D01*
X-53434Y-79970D01*
X-61015Y-74347D01*
X-68009Y-68009D01*
X-74347Y-61015D01*
X-79970Y-53434D01*
X-84822Y-45338D01*
X-88858Y-36806D01*
X-92037Y-27919D01*
X-94331Y-18764D01*
X-95716Y-9427D01*
X-96166Y-256D01*
X-96115Y0D01*
Y1000000D01*
X-96166Y1000256D01*
X-95716Y1009427D01*
X-94331Y1018764D01*
X-92037Y1027919D01*
X-88858Y1036806D01*
X-84822Y1045338D01*
X-79970Y1053434D01*
X-74347Y1061015D01*
X-68009Y1068009D01*
X-61015Y1074347D01*
X-53434Y1079970D01*
X-45338Y1084822D01*
X-36806Y1088858D01*
X-27919Y1092037D01*
X-18764Y1094331D01*
X-9427Y1095716D01*
X-256Y1096166D01*
X0Y1096115D01*
X1000000D01*
X1000256Y1096166D01*
X1009427Y1095716D01*
D02*
G37*
%LPC*%
G36*
X3151Y1040040D02*
X-3151D01*
X-9376Y1039054D01*
X-15370Y1037106D01*
X-20986Y1034245D01*
X-26084Y1030541D01*
X-30541Y1026084D01*
X-34245Y1020985D01*
X-37106Y1015370D01*
X-39054Y1009376D01*
X-40040Y1003151D01*
Y996849D01*
X-39054Y990624D01*
X-37106Y984630D01*
X-34245Y979015D01*
X-30541Y973916D01*
X-26084Y969459D01*
X-20986Y965755D01*
X-15370Y962894D01*
X-9376Y960946D01*
X-3151Y959960D01*
X3151D01*
X9376Y960946D01*
X15370Y962894D01*
X20986Y965755D01*
X26084Y969459D01*
X30541Y973916D01*
X34245Y979015D01*
X37106Y984630D01*
X39054Y990624D01*
X40040Y996849D01*
Y1003151D01*
X39054Y1009376D01*
X37106Y1015370D01*
X34245Y1020985D01*
X30541Y1026084D01*
X26084Y1030541D01*
X20986Y1034245D01*
X15370Y1037106D01*
X9376Y1039054D01*
X3151Y1040040D01*
D02*
G37*
G36*
X1003151Y1040040D02*
X996849D01*
X990624Y1039054D01*
X984630Y1037106D01*
X979015Y1034245D01*
X973916Y1030541D01*
X969459Y1026084D01*
X965755Y1020985D01*
X962894Y1015370D01*
X960946Y1009376D01*
X959960Y1003151D01*
Y996849D01*
X960946Y990624D01*
X962894Y984630D01*
X965755Y979015D01*
X969459Y973916D01*
X973916Y969459D01*
X979015Y965755D01*
X984630Y962894D01*
X990624Y960946D01*
X996849Y959960D01*
X1003151D01*
X1009376Y960946D01*
X1015370Y962894D01*
X1020985Y965755D01*
X1026084Y969459D01*
X1030541Y973916D01*
X1034245Y979015D01*
X1037106Y984630D01*
X1039054Y990624D01*
X1040040Y996849D01*
Y1003151D01*
X1039054Y1009376D01*
X1037106Y1015370D01*
X1034245Y1020985D01*
X1030541Y1026084D01*
X1026084Y1030541D01*
X1020985Y1034245D01*
X1015370Y1037106D01*
X1009376Y1039054D01*
X1003151Y1040040D01*
D02*
G37*
G36*
X851000Y1062889D02*
X413500D01*
X411534Y1062498D01*
X409866Y1061384D01*
X365507Y1017025D01*
X364434Y1017804D01*
X360572Y1019772D01*
X356449Y1021112D01*
X352168Y1021790D01*
X347833D01*
X343551Y1021112D01*
X339428Y1019772D01*
X335566Y1017804D01*
X332059Y1015256D01*
X328994Y1012191D01*
X326446Y1008684D01*
X324478Y1004822D01*
X323138Y1000699D01*
X322460Y996417D01*
Y992083D01*
X323138Y987801D01*
X324478Y983678D01*
X326446Y979816D01*
X328994Y976309D01*
X332059Y973244D01*
X335566Y970696D01*
X339428Y968728D01*
X343551Y967388D01*
X347833Y966710D01*
X352168D01*
X356449Y967388D01*
X360572Y968728D01*
X364434Y970696D01*
X367941Y973244D01*
X371006Y976309D01*
X373554Y979816D01*
X375522Y983678D01*
X376862Y987801D01*
X377540Y992083D01*
Y996417D01*
X376862Y1000699D01*
X375522Y1004822D01*
X373554Y1008684D01*
X372775Y1009757D01*
X415629Y1052611D01*
X848872D01*
X948111Y953372D01*
Y930128D01*
X934982Y916999D01*
X909925D01*
X908934Y918716D01*
X906855Y920794D01*
X906256Y921140D01*
X906597Y922410D01*
X917750D01*
X918741Y922607D01*
X919581Y923169D01*
X930081Y933669D01*
X930643Y934509D01*
X930840Y935500D01*
Y954500D01*
X930643Y955491D01*
X930081Y956331D01*
X899081Y987331D01*
X898241Y987893D01*
X897250Y988090D01*
X751750D01*
X750759Y987893D01*
X749919Y987331D01*
X713677Y951090D01*
X569823D01*
X546840Y974073D01*
Y1017000D01*
X546643Y1017991D01*
X546081Y1018831D01*
X534331Y1030581D01*
X533491Y1031143D01*
X532500Y1031340D01*
X463500D01*
X462509Y1031143D01*
X461669Y1030581D01*
X449919Y1018831D01*
X449357Y1017991D01*
X449160Y1017000D01*
Y975073D01*
X425177Y951090D01*
X70500D01*
X69509Y950893D01*
X68669Y950331D01*
X33169Y914831D01*
X32607Y913991D01*
X32410Y913000D01*
Y750250D01*
X32487Y749865D01*
X32529Y749475D01*
X32585Y749373D01*
X32607Y749259D01*
X32825Y748933D01*
X33014Y748588D01*
X51417Y726588D01*
X51508Y726515D01*
X51573Y726419D01*
X51899Y726201D01*
X52204Y725955D01*
X52316Y725922D01*
X52413Y725857D01*
X52798Y725781D01*
X53174Y725670D01*
X53290Y725683D01*
X53404Y725660D01*
X151250D01*
X152241Y725857D01*
X153081Y726419D01*
X175081Y748419D01*
X175643Y749259D01*
X175840Y750250D01*
Y860460D01*
X190540D01*
Y864611D01*
X216460D01*
Y862210D01*
X231540D01*
Y877290D01*
X216460D01*
Y874889D01*
X190540D01*
Y879040D01*
X175840D01*
Y891177D01*
X207073Y922410D01*
X893403D01*
X893744Y921140D01*
X893145Y920794D01*
X891066Y918716D01*
X889596Y916170D01*
X888835Y913330D01*
Y910390D01*
X889596Y907551D01*
X891066Y905005D01*
X893145Y902926D01*
X895691Y901456D01*
X898530Y900695D01*
X901470D01*
X903385Y901208D01*
X1015111Y789482D01*
Y606628D01*
X952971Y544489D01*
X908193D01*
X907734Y545285D01*
X905935Y547084D01*
X903731Y548356D01*
X901272Y549015D01*
X898728D01*
X896270Y548356D01*
X894065Y547084D01*
X892266Y545285D01*
X890994Y543080D01*
X890875Y542639D01*
X641790D01*
Y543040D01*
X629746D01*
X629250Y543139D01*
X625824D01*
X625321Y543239D01*
X584136D01*
X582601Y544774D01*
X580699Y545872D01*
X578578Y546440D01*
X576382D01*
X574261Y545872D01*
X572359Y544774D01*
X570824Y543239D01*
X510850D01*
X508884Y542848D01*
X507216Y541734D01*
X457921Y492439D01*
X429176D01*
X427641Y493974D01*
X425739Y495072D01*
X423618Y495640D01*
X421422D01*
X419301Y495072D01*
X417399Y493974D01*
X415846Y492421D01*
X414748Y490519D01*
X414180Y488398D01*
Y488013D01*
X414055Y487889D01*
X376790D01*
Y488040D01*
X361003D01*
X360873Y488066D01*
X109466Y488066D01*
X109006Y489781D01*
X107734Y491984D01*
X105934Y493784D01*
X103731Y495056D01*
X101272Y495715D01*
X98728D01*
X96270Y495056D01*
X94066Y493784D01*
X92266Y491984D01*
X90994Y489781D01*
X90335Y487322D01*
Y484778D01*
X90994Y482319D01*
X92266Y480116D01*
X94066Y478316D01*
X96270Y477044D01*
X98728Y476385D01*
X101272D01*
X103731Y477044D01*
X105021Y477789D01*
X358210Y477789D01*
Y471460D01*
X376790D01*
Y477611D01*
X416184D01*
X418150Y478002D01*
X419818Y479116D01*
X420033Y479332D01*
X421422Y478960D01*
X423618D01*
X425739Y479528D01*
X427641Y480626D01*
X429176Y482161D01*
X460050D01*
X462016Y482552D01*
X463684Y483666D01*
X512979Y532961D01*
X570824D01*
X572359Y531426D01*
X574261Y530328D01*
X576382Y529760D01*
X578578D01*
X580699Y530328D01*
X582601Y531426D01*
X584136Y532961D01*
X623210D01*
Y526460D01*
X641790D01*
Y532361D01*
X893320D01*
X894065Y531616D01*
X896270Y530344D01*
X898728Y529685D01*
X901272D01*
X903731Y530344D01*
X905935Y531616D01*
X907734Y533415D01*
X908193Y534211D01*
X955100D01*
X957066Y534602D01*
X958734Y535716D01*
X1023884Y600866D01*
X1024998Y602533D01*
X1025389Y604500D01*
Y791610D01*
X1024998Y793577D01*
X1023884Y795244D01*
X913579Y905548D01*
X914065Y906721D01*
X937110D01*
X939077Y907112D01*
X940744Y908226D01*
X956884Y924366D01*
X957998Y926033D01*
X958389Y928000D01*
Y955500D01*
X957998Y957467D01*
X956884Y959134D01*
X854634Y1061384D01*
X852967Y1062498D01*
X851000Y1062889D01*
D02*
G37*
G36*
X901470Y872225D02*
X898530D01*
X895691Y871464D01*
X893145Y869994D01*
X891066Y867915D01*
X889596Y865369D01*
X889482Y864945D01*
X855310D01*
X853823Y864649D01*
X852563Y863807D01*
X759891Y771135D01*
X603430D01*
X601943Y770839D01*
X600683Y769997D01*
X579957Y749270D01*
X578578Y749640D01*
X576382D01*
X574261Y749072D01*
X572359Y747974D01*
X570806Y746421D01*
X569708Y744519D01*
X569140Y742398D01*
Y740202D01*
X569708Y738081D01*
X570806Y736179D01*
X572359Y734626D01*
X574261Y733528D01*
X576382Y732960D01*
X578578D01*
X580699Y733528D01*
X582601Y734626D01*
X584154Y736179D01*
X584867Y737415D01*
X890335D01*
Y732885D01*
X909665D01*
Y752215D01*
X890335D01*
Y745185D01*
X588518D01*
X588032Y746358D01*
X605039Y763365D01*
X761500D01*
X762987Y763661D01*
X764247Y764503D01*
X856919Y857175D01*
X889482D01*
X889596Y856750D01*
X891066Y854204D01*
X893145Y852126D01*
X895691Y850656D01*
X898530Y849895D01*
X901470D01*
X904309Y850656D01*
X906855Y852126D01*
X908934Y854204D01*
X910404Y856750D01*
X911165Y859590D01*
Y862530D01*
X910404Y865369D01*
X908934Y867915D01*
X906855Y869994D01*
X904309Y871464D01*
X901470Y872225D01*
D02*
G37*
G36*
Y846825D02*
X898530D01*
X895691Y846064D01*
X893145Y844594D01*
X891066Y842515D01*
X889596Y839969D01*
X889482Y839545D01*
X875410D01*
X873923Y839249D01*
X872663Y838407D01*
X864003Y829747D01*
X863161Y828487D01*
X862865Y827000D01*
Y784750D01*
X863161Y783263D01*
X864003Y782003D01*
X878253Y767753D01*
X879513Y766911D01*
X881000Y766615D01*
X944641D01*
X959115Y752141D01*
Y729109D01*
X951041Y721035D01*
X908917D01*
X907734Y723084D01*
X905935Y724884D01*
X903731Y726156D01*
X901272Y726815D01*
X898728D01*
X896270Y726156D01*
X894065Y724884D01*
X892266Y723084D01*
X890994Y720881D01*
X890867Y720410D01*
X584506D01*
X584154Y721021D01*
X582601Y722574D01*
X580699Y723672D01*
X578578Y724240D01*
X576382D01*
X574261Y723672D01*
X572359Y722574D01*
X570806Y721021D01*
X569708Y719119D01*
X569140Y716998D01*
Y714802D01*
X569708Y712681D01*
X570806Y710779D01*
X572359Y709226D01*
X574261Y708128D01*
X576382Y707560D01*
X578578D01*
X580699Y708128D01*
X582601Y709226D01*
X584154Y710779D01*
X585228Y712640D01*
X891443D01*
X892266Y711216D01*
X894065Y709416D01*
X896270Y708144D01*
X898728Y707485D01*
X901272D01*
X903731Y708144D01*
X905935Y709416D01*
X907734Y711216D01*
X908917Y713265D01*
X952650D01*
X954137Y713561D01*
X955397Y714403D01*
X965747Y724753D01*
X966589Y726013D01*
X966885Y727500D01*
Y753750D01*
X966589Y755237D01*
X965747Y756497D01*
X948997Y773247D01*
X947737Y774089D01*
X946250Y774385D01*
X882609D01*
X870635Y786359D01*
Y825391D01*
X877019Y831775D01*
X889482D01*
X889596Y831350D01*
X891066Y828804D01*
X893145Y826726D01*
X895691Y825256D01*
X898530Y824495D01*
X901470D01*
X904309Y825256D01*
X906855Y826726D01*
X908934Y828804D01*
X910404Y831350D01*
X911165Y834190D01*
Y837130D01*
X910404Y839969D01*
X908934Y842515D01*
X906855Y844594D01*
X904309Y846064D01*
X901470Y846825D01*
D02*
G37*
G36*
X316540Y832290D02*
X301460D01*
Y817210D01*
X316540D01*
Y832290D01*
D02*
G37*
G36*
X402000Y898590D02*
X291500D01*
X290509Y898393D01*
X289669Y897831D01*
X279669Y887831D01*
X279107Y886991D01*
X278910Y886000D01*
Y866500D01*
X278924Y866432D01*
X278914Y866364D01*
X279022Y865939D01*
X279107Y865509D01*
X279146Y865452D01*
X279163Y865385D01*
X279425Y865033D01*
X279669Y864669D01*
X279726Y864630D01*
X279767Y864575D01*
X289768Y855575D01*
X290145Y855351D01*
X290509Y855107D01*
X290577Y855094D01*
X290636Y855059D01*
X291070Y854996D01*
X291500Y854910D01*
X346677D01*
X384410Y817177D01*
Y747250D01*
X384499Y746805D01*
X384569Y746357D01*
X384597Y746311D01*
X384607Y746259D01*
X384860Y745882D01*
X385096Y745495D01*
X402616Y726495D01*
X402659Y726463D01*
X402688Y726419D01*
X403066Y726167D01*
X403432Y725900D01*
X403484Y725887D01*
X403528Y725857D01*
X403974Y725769D01*
X404415Y725662D01*
X404467Y725671D01*
X404520Y725660D01*
X440750D01*
X441741Y725857D01*
X442581Y726419D01*
X461581Y745419D01*
X462143Y746259D01*
X462340Y747250D01*
Y838250D01*
X462143Y839241D01*
X461581Y840081D01*
X403831Y897831D01*
X402991Y898393D01*
X402000Y898590D01*
D02*
G37*
G36*
X101272Y724315D02*
X98728D01*
X96270Y723656D01*
X94066Y722384D01*
X92266Y720584D01*
X90994Y718381D01*
X90335Y715922D01*
Y713378D01*
X90994Y710919D01*
X92266Y708716D01*
X94066Y706916D01*
X96270Y705644D01*
X98728Y704985D01*
X101272D01*
X103731Y705644D01*
X105934Y706916D01*
X107734Y708716D01*
X109006Y710919D01*
X109132Y711390D01*
X415494D01*
X415846Y710779D01*
X417399Y709226D01*
X419301Y708128D01*
X421422Y707560D01*
X423618D01*
X425739Y708128D01*
X427641Y709226D01*
X429194Y710779D01*
X430292Y712681D01*
X430860Y714802D01*
Y716998D01*
X430292Y719119D01*
X429194Y721021D01*
X427641Y722574D01*
X425739Y723672D01*
X423618Y724240D01*
X421422D01*
X419301Y723672D01*
X417399Y722574D01*
X415846Y721021D01*
X414772Y719160D01*
X108556D01*
X107734Y720584D01*
X105934Y722384D01*
X103731Y723656D01*
X101272Y724315D01*
D02*
G37*
G36*
X901272Y701415D02*
X898728D01*
X896270Y700756D01*
X894065Y699484D01*
X892266Y697684D01*
X890994Y695480D01*
X890867Y695010D01*
X584506D01*
X584154Y695621D01*
X582601Y697174D01*
X580699Y698272D01*
X578578Y698840D01*
X576382D01*
X574261Y698272D01*
X572359Y697174D01*
X570806Y695621D01*
X569708Y693719D01*
X569140Y691598D01*
Y689402D01*
X569708Y687281D01*
X570806Y685379D01*
X572359Y683826D01*
X574261Y682728D01*
X576382Y682160D01*
X578578D01*
X580699Y682728D01*
X582601Y683826D01*
X584154Y685379D01*
X585228Y687240D01*
X891443D01*
X892266Y685816D01*
X894065Y684016D01*
X896270Y682744D01*
X898728Y682085D01*
X901272D01*
X903731Y682744D01*
X905935Y684016D01*
X907734Y685816D01*
X909006Y688019D01*
X909665Y690478D01*
Y693022D01*
X909006Y695480D01*
X907734Y697684D01*
X905935Y699484D01*
X903731Y700756D01*
X901272Y701415D01*
D02*
G37*
G36*
X101272Y698915D02*
X98728D01*
X96270Y698256D01*
X94066Y696984D01*
X92266Y695184D01*
X90994Y692981D01*
X90335Y690522D01*
Y687978D01*
X90994Y685519D01*
X92266Y683316D01*
X94066Y681516D01*
X96270Y680244D01*
X98728Y679585D01*
X101272D01*
X103731Y680244D01*
X105934Y681516D01*
X107734Y683316D01*
X109006Y685519D01*
X109132Y685990D01*
X415494D01*
X415846Y685379D01*
X417399Y683826D01*
X419301Y682728D01*
X421422Y682160D01*
X423618D01*
X425739Y682728D01*
X427641Y683826D01*
X429194Y685379D01*
X430292Y687281D01*
X430860Y689402D01*
Y691598D01*
X430292Y693719D01*
X429194Y695621D01*
X427641Y697174D01*
X425739Y698272D01*
X423618Y698840D01*
X421422D01*
X419301Y698272D01*
X417399Y697174D01*
X415846Y695621D01*
X414772Y693760D01*
X108556D01*
X107734Y695184D01*
X105934Y696984D01*
X103731Y698256D01*
X101272Y698915D01*
D02*
G37*
G36*
X901272Y676015D02*
X898728D01*
X896270Y675356D01*
X894065Y674084D01*
X892266Y672284D01*
X890994Y670080D01*
X890867Y669610D01*
X584506D01*
X584154Y670221D01*
X582601Y671774D01*
X580699Y672872D01*
X578578Y673440D01*
X576382D01*
X574261Y672872D01*
X572359Y671774D01*
X570806Y670221D01*
X569708Y668319D01*
X569140Y666198D01*
Y664002D01*
X569708Y661881D01*
X570806Y659979D01*
X572359Y658426D01*
X574261Y657328D01*
X576382Y656760D01*
X578578D01*
X580699Y657328D01*
X582601Y658426D01*
X584154Y659979D01*
X585228Y661840D01*
X891443D01*
X892266Y660415D01*
X894065Y658616D01*
X896270Y657344D01*
X898728Y656685D01*
X901272D01*
X903731Y657344D01*
X905935Y658616D01*
X907734Y660415D01*
X909006Y662619D01*
X909665Y665078D01*
Y667622D01*
X909006Y670080D01*
X907734Y672284D01*
X905935Y674084D01*
X903731Y675356D01*
X901272Y676015D01*
D02*
G37*
G36*
X101272Y673515D02*
X98728D01*
X96270Y672856D01*
X94066Y671584D01*
X92266Y669784D01*
X90994Y667581D01*
X90335Y665122D01*
Y662578D01*
X90994Y660119D01*
X92266Y657915D01*
X94066Y656116D01*
X96270Y654844D01*
X98728Y654185D01*
X101272D01*
X103731Y654844D01*
X105934Y656116D01*
X107734Y657915D01*
X109006Y660119D01*
X109132Y660590D01*
X415494D01*
X415846Y659979D01*
X417399Y658426D01*
X419301Y657328D01*
X421422Y656760D01*
X423618D01*
X425739Y657328D01*
X427641Y658426D01*
X429194Y659979D01*
X430292Y661881D01*
X430860Y664002D01*
Y666198D01*
X430292Y668319D01*
X429194Y670221D01*
X427641Y671774D01*
X425739Y672872D01*
X423618Y673440D01*
X421422D01*
X419301Y672872D01*
X417399Y671774D01*
X415846Y670221D01*
X414772Y668360D01*
X108556D01*
X107734Y669784D01*
X105934Y671584D01*
X103731Y672856D01*
X101272Y673515D01*
D02*
G37*
G36*
X911165Y821425D02*
X888835D01*
Y799095D01*
X911165D01*
Y806375D01*
X950631D01*
X978615Y778391D01*
Y697609D01*
X925841Y644835D01*
X908917D01*
X907734Y646885D01*
X905935Y648684D01*
X903731Y649956D01*
X901272Y650615D01*
X898728D01*
X896270Y649956D01*
X894065Y648684D01*
X892266Y646885D01*
X890994Y644680D01*
X890867Y644210D01*
X584506D01*
X584154Y644821D01*
X582601Y646374D01*
X580699Y647472D01*
X578578Y648040D01*
X576382D01*
X574261Y647472D01*
X572359Y646374D01*
X570806Y644821D01*
X569708Y642919D01*
X569140Y640798D01*
Y638602D01*
X569708Y636481D01*
X570806Y634579D01*
X572359Y633026D01*
X574261Y631928D01*
X576382Y631360D01*
X578578D01*
X580699Y631928D01*
X582601Y633026D01*
X584154Y634579D01*
X585228Y636440D01*
X891443D01*
X892266Y635015D01*
X894065Y633216D01*
X896270Y631944D01*
X898728Y631285D01*
X901272D01*
X903731Y631944D01*
X905935Y633216D01*
X907734Y635015D01*
X908917Y637065D01*
X927450D01*
X928937Y637361D01*
X930197Y638203D01*
X985247Y693253D01*
X986089Y694513D01*
X986385Y696000D01*
Y780000D01*
X986089Y781487D01*
X985247Y782747D01*
X954987Y813007D01*
X953727Y813849D01*
X952240Y814145D01*
X911165D01*
Y821425D01*
D02*
G37*
G36*
X101272Y648115D02*
X98728D01*
X96270Y647456D01*
X94066Y646184D01*
X92266Y644385D01*
X90994Y642181D01*
X90335Y639722D01*
Y637178D01*
X90994Y634720D01*
X92266Y632515D01*
X94066Y630716D01*
X96270Y629444D01*
X98728Y628785D01*
X101272D01*
X103731Y629444D01*
X105934Y630716D01*
X107734Y632515D01*
X109006Y634720D01*
X109132Y635190D01*
X415494D01*
X415846Y634579D01*
X417399Y633026D01*
X419301Y631928D01*
X421422Y631360D01*
X423618D01*
X425739Y631928D01*
X427641Y633026D01*
X429194Y634579D01*
X430292Y636481D01*
X430860Y638602D01*
Y640798D01*
X430292Y642919D01*
X429194Y644821D01*
X427641Y646374D01*
X425739Y647472D01*
X423618Y648040D01*
X421422D01*
X419301Y647472D01*
X417399Y646374D01*
X415846Y644821D01*
X414772Y642960D01*
X108556D01*
X107734Y644385D01*
X105934Y646184D01*
X103731Y647456D01*
X101272Y648115D01*
D02*
G37*
G36*
X901272Y625215D02*
X898728D01*
X896270Y624556D01*
X894065Y623284D01*
X892266Y621484D01*
X890994Y619281D01*
X890867Y618810D01*
X584506D01*
X584154Y619421D01*
X582601Y620974D01*
X580699Y622072D01*
X578578Y622640D01*
X576382D01*
X574261Y622072D01*
X572359Y620974D01*
X570806Y619421D01*
X569708Y617519D01*
X569140Y615398D01*
Y613202D01*
X569708Y611081D01*
X570806Y609179D01*
X572359Y607626D01*
X574261Y606528D01*
X576382Y605960D01*
X578578D01*
X580699Y606528D01*
X582601Y607626D01*
X584154Y609179D01*
X585228Y611040D01*
X891443D01*
X892266Y609616D01*
X894065Y607816D01*
X896270Y606544D01*
X898728Y605885D01*
X901272D01*
X903731Y606544D01*
X905935Y607816D01*
X907734Y609616D01*
X909006Y611819D01*
X909665Y614278D01*
Y616822D01*
X909006Y619281D01*
X907734Y621484D01*
X905935Y623284D01*
X903731Y624556D01*
X901272Y625215D01*
D02*
G37*
G36*
X101272Y622715D02*
X98728D01*
X96270Y622056D01*
X94066Y620784D01*
X92266Y618984D01*
X90994Y616781D01*
X90335Y614322D01*
Y611778D01*
X90994Y609319D01*
X92266Y607116D01*
X94066Y605316D01*
X96270Y604044D01*
X98728Y603385D01*
X101272D01*
X103731Y604044D01*
X105934Y605316D01*
X107734Y607116D01*
X109006Y609319D01*
X109132Y609790D01*
X415494D01*
X415846Y609179D01*
X417399Y607626D01*
X419301Y606528D01*
X421422Y605960D01*
X423618D01*
X425739Y606528D01*
X427641Y607626D01*
X429194Y609179D01*
X430292Y611081D01*
X430860Y613202D01*
Y615398D01*
X430292Y617519D01*
X429194Y619421D01*
X427641Y620974D01*
X425739Y622072D01*
X423618Y622640D01*
X421422D01*
X419301Y622072D01*
X417399Y620974D01*
X415846Y619421D01*
X414772Y617560D01*
X108556D01*
X107734Y618984D01*
X105934Y620784D01*
X103731Y622056D01*
X101272Y622715D01*
D02*
G37*
G36*
X901272Y599815D02*
X898728D01*
X896270Y599156D01*
X894065Y597884D01*
X892266Y596085D01*
X890994Y593881D01*
X890867Y593410D01*
X584506D01*
X584154Y594021D01*
X582601Y595574D01*
X580699Y596672D01*
X578578Y597240D01*
X576382D01*
X574261Y596672D01*
X572359Y595574D01*
X570806Y594021D01*
X569708Y592119D01*
X569140Y589998D01*
Y587802D01*
X569708Y585681D01*
X570806Y583779D01*
X572359Y582226D01*
X574261Y581128D01*
X576382Y580560D01*
X578578D01*
X580699Y581128D01*
X582601Y582226D01*
X584154Y583779D01*
X585228Y585640D01*
X891443D01*
X892266Y584216D01*
X894065Y582416D01*
X896270Y581144D01*
X898728Y580485D01*
X901272D01*
X903731Y581144D01*
X905935Y582416D01*
X907734Y584216D01*
X909006Y586419D01*
X909665Y588878D01*
Y591422D01*
X909006Y593881D01*
X907734Y596085D01*
X905935Y597884D01*
X903731Y599156D01*
X901272Y599815D01*
D02*
G37*
G36*
X101272Y597315D02*
X98728D01*
X96270Y596656D01*
X94066Y595384D01*
X92266Y593585D01*
X90994Y591381D01*
X90335Y588922D01*
Y586378D01*
X90994Y583919D01*
X92266Y581716D01*
X94066Y579916D01*
X96270Y578644D01*
X98728Y577985D01*
X101272D01*
X103731Y578644D01*
X105934Y579916D01*
X107734Y581716D01*
X109006Y583919D01*
X109132Y584390D01*
X415494D01*
X415846Y583779D01*
X417399Y582226D01*
X419301Y581128D01*
X421422Y580560D01*
X423618D01*
X425739Y581128D01*
X427641Y582226D01*
X429194Y583779D01*
X430292Y585681D01*
X430860Y587802D01*
Y589998D01*
X430292Y592119D01*
X429194Y594021D01*
X427641Y595574D01*
X425739Y596672D01*
X423618Y597240D01*
X421422D01*
X419301Y596672D01*
X417399Y595574D01*
X415846Y594021D01*
X414772Y592160D01*
X108556D01*
X107734Y593585D01*
X105934Y595384D01*
X103731Y596656D01*
X101272Y597315D01*
D02*
G37*
G36*
X901272Y574415D02*
X898728D01*
X896270Y573756D01*
X894065Y572484D01*
X892266Y570685D01*
X890994Y568480D01*
X890867Y568010D01*
X584506D01*
X584154Y568621D01*
X582601Y570174D01*
X580699Y571272D01*
X578578Y571840D01*
X576382D01*
X574261Y571272D01*
X572359Y570174D01*
X570806Y568621D01*
X569708Y566719D01*
X569140Y564598D01*
Y562402D01*
X569708Y560281D01*
X570806Y558379D01*
X572359Y556826D01*
X574261Y555728D01*
X576382Y555160D01*
X578578D01*
X580699Y555728D01*
X582601Y556826D01*
X584154Y558379D01*
X585228Y560240D01*
X891443D01*
X892266Y558815D01*
X894065Y557016D01*
X896270Y555744D01*
X898728Y555085D01*
X901272D01*
X903731Y555744D01*
X905935Y557016D01*
X907734Y558815D01*
X909006Y561020D01*
X909665Y563478D01*
Y566022D01*
X909006Y568480D01*
X907734Y570685D01*
X905935Y572484D01*
X903731Y573756D01*
X901272Y574415D01*
D02*
G37*
G36*
X101272Y571915D02*
X98728D01*
X96270Y571256D01*
X94066Y569984D01*
X92266Y568185D01*
X90994Y565981D01*
X90335Y563522D01*
Y560978D01*
X90994Y558520D01*
X92266Y556315D01*
X94066Y554516D01*
X96270Y553244D01*
X98728Y552585D01*
X101272D01*
X103731Y553244D01*
X105934Y554516D01*
X107734Y556315D01*
X109006Y558520D01*
X109132Y558990D01*
X415494D01*
X415846Y558379D01*
X417399Y556826D01*
X419301Y555728D01*
X421422Y555160D01*
X423618D01*
X425739Y555728D01*
X427641Y556826D01*
X429194Y558379D01*
X430292Y560281D01*
X430860Y562402D01*
Y564598D01*
X430292Y566719D01*
X429194Y568621D01*
X427641Y570174D01*
X425739Y571272D01*
X423618Y571840D01*
X421422D01*
X419301Y571272D01*
X417399Y570174D01*
X415846Y568621D01*
X414772Y566760D01*
X108556D01*
X107734Y568185D01*
X105934Y569984D01*
X103731Y571256D01*
X101272Y571915D01*
D02*
G37*
G36*
Y546515D02*
X98728D01*
X96270Y545856D01*
X94066Y544584D01*
X92266Y542785D01*
X90994Y540581D01*
X90335Y538122D01*
Y535578D01*
X90994Y533120D01*
X92266Y530915D01*
X94066Y529116D01*
X96270Y527844D01*
X98728Y527185D01*
X101272D01*
X103731Y527844D01*
X105934Y529116D01*
X107734Y530915D01*
X109006Y533120D01*
X109132Y533590D01*
X415494D01*
X415846Y532979D01*
X417399Y531426D01*
X419301Y530328D01*
X421422Y529760D01*
X423618D01*
X425739Y530328D01*
X427641Y531426D01*
X429194Y532979D01*
X430292Y534881D01*
X430860Y537002D01*
Y539198D01*
X430292Y541319D01*
X429194Y543221D01*
X427641Y544774D01*
X425739Y545872D01*
X423618Y546440D01*
X421422D01*
X419301Y545872D01*
X417399Y544774D01*
X415846Y543221D01*
X414772Y541360D01*
X108556D01*
X107734Y542785D01*
X105934Y544584D01*
X103731Y545856D01*
X101272Y546515D01*
D02*
G37*
G36*
Y521115D02*
X98728D01*
X96270Y520456D01*
X94066Y519184D01*
X92266Y517384D01*
X90994Y515181D01*
X90335Y512722D01*
Y510178D01*
X90994Y507719D01*
X92266Y505516D01*
X94066Y503716D01*
X96270Y502444D01*
X98728Y501785D01*
X101272D01*
X103731Y502444D01*
X105934Y503716D01*
X107734Y505516D01*
X109006Y507719D01*
X109132Y508190D01*
X415494D01*
X415846Y507579D01*
X417399Y506026D01*
X419301Y504928D01*
X421422Y504360D01*
X423618D01*
X425739Y504928D01*
X427641Y506026D01*
X429194Y507579D01*
X430292Y509481D01*
X430860Y511602D01*
Y513798D01*
X430292Y515919D01*
X429194Y517821D01*
X427641Y519374D01*
X425739Y520472D01*
X423618Y521040D01*
X421422D01*
X419301Y520472D01*
X417399Y519374D01*
X415846Y517821D01*
X414772Y515960D01*
X108556D01*
X107734Y517384D01*
X105934Y519184D01*
X103731Y520456D01*
X101272Y521115D01*
D02*
G37*
G36*
X901272Y498215D02*
X898728D01*
X896270Y497556D01*
X894065Y496284D01*
X892266Y494484D01*
X890994Y492281D01*
X890867Y491810D01*
X584506D01*
X584154Y492421D01*
X582601Y493974D01*
X580699Y495072D01*
X578578Y495640D01*
X576382D01*
X574261Y495072D01*
X572359Y493974D01*
X570806Y492421D01*
X569708Y490519D01*
X569140Y488398D01*
Y486202D01*
X569708Y484081D01*
X570806Y482179D01*
X572359Y480626D01*
X574261Y479528D01*
X576382Y478960D01*
X578578D01*
X580699Y479528D01*
X582601Y480626D01*
X584154Y482179D01*
X585228Y484040D01*
X891443D01*
X892266Y482616D01*
X894065Y480816D01*
X896270Y479544D01*
X898728Y478885D01*
X901272D01*
X903731Y479544D01*
X905935Y480816D01*
X907734Y482616D01*
X909006Y484819D01*
X909665Y487278D01*
Y489822D01*
X909006Y492281D01*
X907734Y494484D01*
X905935Y496284D01*
X903731Y497556D01*
X901272Y498215D01*
D02*
G37*
G36*
Y472815D02*
X898728D01*
X896270Y472156D01*
X894065Y470884D01*
X892266Y469085D01*
X890994Y466880D01*
X890867Y466410D01*
X584506D01*
X584154Y467021D01*
X582601Y468574D01*
X580699Y469672D01*
X578578Y470240D01*
X576382D01*
X574261Y469672D01*
X572359Y468574D01*
X570806Y467021D01*
X569708Y465119D01*
X569140Y462998D01*
Y460802D01*
X569708Y458681D01*
X570806Y456779D01*
X572359Y455226D01*
X574261Y454128D01*
X576382Y453560D01*
X578578D01*
X580699Y454128D01*
X582601Y455226D01*
X584154Y456779D01*
X585228Y458640D01*
X891443D01*
X892266Y457215D01*
X894065Y455416D01*
X896270Y454144D01*
X898728Y453485D01*
X901272D01*
X903731Y454144D01*
X905935Y455416D01*
X907734Y457215D01*
X909006Y459420D01*
X909665Y461878D01*
Y464422D01*
X909006Y466880D01*
X907734Y469085D01*
X905935Y470884D01*
X903731Y472156D01*
X901272Y472815D01*
D02*
G37*
G36*
Y447415D02*
X898728D01*
X896270Y446756D01*
X894065Y445484D01*
X892266Y443685D01*
X890994Y441480D01*
X890867Y441010D01*
X584506D01*
X584154Y441621D01*
X582601Y443174D01*
X580699Y444272D01*
X578578Y444840D01*
X576382D01*
X574261Y444272D01*
X572359Y443174D01*
X570806Y441621D01*
X569708Y439719D01*
X569140Y437598D01*
Y435402D01*
X569708Y433281D01*
X570806Y431379D01*
X572359Y429826D01*
X574261Y428728D01*
X576382Y428160D01*
X578578D01*
X580699Y428728D01*
X582601Y429826D01*
X584154Y431379D01*
X585228Y433240D01*
X891443D01*
X892266Y431815D01*
X894065Y430016D01*
X896270Y428744D01*
X898728Y428085D01*
X901272D01*
X903731Y428744D01*
X905935Y430016D01*
X907734Y431815D01*
X909006Y434020D01*
X909665Y436478D01*
Y439022D01*
X909006Y441480D01*
X907734Y443685D01*
X905935Y445484D01*
X903731Y446756D01*
X901272Y447415D01*
D02*
G37*
G36*
X101272Y444915D02*
X98728D01*
X96270Y444256D01*
X94066Y442984D01*
X92266Y441185D01*
X90994Y438981D01*
X90335Y436522D01*
Y433978D01*
X90948Y431691D01*
X33753Y374497D01*
X32911Y373237D01*
X32615Y371750D01*
Y212000D01*
X32911Y210513D01*
X33753Y209253D01*
X89543Y153463D01*
X90803Y152621D01*
X92290Y152325D01*
X186620D01*
Y143670D01*
X212775D01*
Y101150D01*
X207370D01*
Y86570D01*
X225950D01*
Y101150D01*
X220545D01*
Y143670D01*
X246700D01*
Y168750D01*
X186620D01*
Y160095D01*
X93899D01*
X40385Y213609D01*
Y370141D01*
X96441Y426198D01*
X98728Y425585D01*
X101272D01*
X103731Y426244D01*
X105934Y427516D01*
X107734Y429315D01*
X109006Y431520D01*
X109132Y431990D01*
X415494D01*
X415846Y431379D01*
X417399Y429826D01*
X419301Y428728D01*
X421422Y428160D01*
X423618D01*
X425739Y428728D01*
X427641Y429826D01*
X429194Y431379D01*
X430292Y433281D01*
X430860Y435402D01*
Y437598D01*
X430292Y439719D01*
X429194Y441621D01*
X427641Y443174D01*
X425739Y444272D01*
X423618Y444840D01*
X421422D01*
X419301Y444272D01*
X417399Y443174D01*
X415846Y441621D01*
X414772Y439760D01*
X108556D01*
X107734Y441185D01*
X105934Y442984D01*
X103731Y444256D01*
X101272Y444915D01*
D02*
G37*
G36*
X901272Y422015D02*
X898728D01*
X896270Y421356D01*
X894065Y420084D01*
X892266Y418284D01*
X890994Y416081D01*
X890867Y415610D01*
X584506D01*
X584154Y416221D01*
X582601Y417774D01*
X580699Y418872D01*
X578578Y419440D01*
X576382D01*
X574261Y418872D01*
X572359Y417774D01*
X570806Y416221D01*
X569708Y414319D01*
X569140Y412198D01*
Y410002D01*
X569708Y407881D01*
X570806Y405979D01*
X572359Y404426D01*
X574261Y403328D01*
X576382Y402760D01*
X578578D01*
X580699Y403328D01*
X582601Y404426D01*
X584154Y405979D01*
X585228Y407840D01*
X891443D01*
X892266Y406415D01*
X894065Y404616D01*
X896270Y403344D01*
X898728Y402685D01*
X901272D01*
X903731Y403344D01*
X905935Y404616D01*
X907734Y406415D01*
X909006Y408619D01*
X909665Y411078D01*
Y413622D01*
X909006Y416081D01*
X907734Y418284D01*
X905935Y420084D01*
X903731Y421356D01*
X901272Y422015D01*
D02*
G37*
G36*
Y396615D02*
X898728D01*
X896270Y395956D01*
X894065Y394684D01*
X892266Y392884D01*
X890994Y390681D01*
X890867Y390210D01*
X584506D01*
X584154Y390821D01*
X582601Y392374D01*
X580699Y393472D01*
X578578Y394040D01*
X576382D01*
X574261Y393472D01*
X572359Y392374D01*
X570806Y390821D01*
X569708Y388919D01*
X569140Y386798D01*
Y384602D01*
X569708Y382481D01*
X570806Y380579D01*
X572359Y379026D01*
X574261Y377928D01*
X576382Y377360D01*
X578578D01*
X580699Y377928D01*
X582601Y379026D01*
X584154Y380579D01*
X585228Y382440D01*
X891443D01*
X892266Y381016D01*
X894065Y379216D01*
X896270Y377944D01*
X898728Y377285D01*
X901272D01*
X903731Y377944D01*
X905935Y379216D01*
X907734Y381016D01*
X909006Y383219D01*
X909665Y385678D01*
Y388222D01*
X909006Y390681D01*
X907734Y392884D01*
X905935Y394684D01*
X903731Y395956D01*
X901272Y396615D01*
D02*
G37*
G36*
X101272Y394115D02*
X98728D01*
X96270Y393456D01*
X94066Y392184D01*
X92266Y390384D01*
X90994Y388181D01*
X90335Y385722D01*
Y383178D01*
X90994Y380719D01*
X92266Y378516D01*
X94066Y376716D01*
X96270Y375444D01*
X98728Y374785D01*
X101272D01*
X103731Y375444D01*
X105934Y376716D01*
X107734Y378516D01*
X109006Y380719D01*
X109132Y381190D01*
X415494D01*
X415846Y380579D01*
X417399Y379026D01*
X419301Y377928D01*
X421422Y377360D01*
X423618D01*
X425739Y377928D01*
X427641Y379026D01*
X429194Y380579D01*
X430292Y382481D01*
X430860Y384602D01*
Y386798D01*
X430292Y388919D01*
X429194Y390821D01*
X427641Y392374D01*
X425739Y393472D01*
X423618Y394040D01*
X421422D01*
X419301Y393472D01*
X417399Y392374D01*
X415846Y390821D01*
X414772Y388960D01*
X108556D01*
X107734Y390384D01*
X105934Y392184D01*
X103731Y393456D01*
X101272Y394115D01*
D02*
G37*
G36*
X901272Y371215D02*
X898728D01*
X896270Y370556D01*
X894065Y369284D01*
X892266Y367485D01*
X890994Y365280D01*
X890867Y364810D01*
X584506D01*
X584154Y365421D01*
X582601Y366974D01*
X580699Y368072D01*
X578578Y368640D01*
X576382D01*
X574261Y368072D01*
X572359Y366974D01*
X570806Y365421D01*
X569708Y363519D01*
X569140Y361398D01*
Y359202D01*
X569708Y357081D01*
X570806Y355179D01*
X572359Y353626D01*
X574261Y352528D01*
X576382Y351960D01*
X578578D01*
X580699Y352528D01*
X582601Y353626D01*
X584154Y355179D01*
X585228Y357040D01*
X891443D01*
X892266Y355616D01*
X894065Y353816D01*
X896270Y352544D01*
X898728Y351885D01*
X901272D01*
X903731Y352544D01*
X905935Y353816D01*
X907734Y355616D01*
X909006Y357820D01*
X909665Y360278D01*
Y362822D01*
X909006Y365280D01*
X907734Y367485D01*
X905935Y369284D01*
X903731Y370556D01*
X901272Y371215D01*
D02*
G37*
G36*
X101272Y368715D02*
X98728D01*
X96270Y368056D01*
X94066Y366784D01*
X92266Y364985D01*
X90994Y362781D01*
X90335Y360322D01*
Y357778D01*
X90994Y355320D01*
X92266Y353116D01*
X94066Y351316D01*
X96270Y350044D01*
X98728Y349385D01*
X101272D01*
X103731Y350044D01*
X105934Y351316D01*
X107734Y353116D01*
X109006Y355320D01*
X109132Y355790D01*
X415494D01*
X415846Y355179D01*
X417399Y353626D01*
X419301Y352528D01*
X421422Y351960D01*
X423618D01*
X425739Y352528D01*
X427641Y353626D01*
X429194Y355179D01*
X430292Y357081D01*
X430860Y359202D01*
Y361398D01*
X430292Y363519D01*
X429194Y365421D01*
X427641Y366974D01*
X425739Y368072D01*
X423618Y368640D01*
X421422D01*
X419301Y368072D01*
X417399Y366974D01*
X415846Y365421D01*
X414772Y363560D01*
X108556D01*
X107734Y364985D01*
X105934Y366784D01*
X103731Y368056D01*
X101272Y368715D01*
D02*
G37*
G36*
X901272Y345815D02*
X898728D01*
X896270Y345156D01*
X894065Y343884D01*
X892266Y342085D01*
X890994Y339880D01*
X890867Y339410D01*
X584506D01*
X584154Y340021D01*
X582601Y341574D01*
X580699Y342672D01*
X578578Y343240D01*
X576382D01*
X574261Y342672D01*
X572359Y341574D01*
X570806Y340021D01*
X569708Y338119D01*
X569140Y335998D01*
Y333802D01*
X569708Y331681D01*
X570806Y329779D01*
X572359Y328226D01*
X574261Y327128D01*
X576382Y326560D01*
X578578D01*
X580699Y327128D01*
X582601Y328226D01*
X584154Y329779D01*
X585228Y331640D01*
X891443D01*
X892266Y330215D01*
X894065Y328416D01*
X896270Y327144D01*
X898728Y326485D01*
X901272D01*
X903731Y327144D01*
X905935Y328416D01*
X907734Y330215D01*
X909006Y332420D01*
X909665Y334878D01*
Y337422D01*
X909006Y339880D01*
X907734Y342085D01*
X905935Y343884D01*
X903731Y345156D01*
X901272Y345815D01*
D02*
G37*
G36*
X101272Y343315D02*
X98728D01*
X96270Y342656D01*
X94066Y341384D01*
X92266Y339585D01*
X90994Y337381D01*
X90335Y334922D01*
Y332378D01*
X90994Y329920D01*
X92266Y327715D01*
X94066Y325916D01*
X96270Y324644D01*
X98728Y323985D01*
X101272D01*
X103731Y324644D01*
X105934Y325916D01*
X107734Y327715D01*
X109006Y329920D01*
X109132Y330390D01*
X415494D01*
X415846Y329779D01*
X417399Y328226D01*
X419301Y327128D01*
X421422Y326560D01*
X423618D01*
X425739Y327128D01*
X427641Y328226D01*
X429194Y329779D01*
X430292Y331681D01*
X430860Y333802D01*
Y335998D01*
X430292Y338119D01*
X429194Y340021D01*
X427641Y341574D01*
X425739Y342672D01*
X423618Y343240D01*
X421422D01*
X419301Y342672D01*
X417399Y341574D01*
X415846Y340021D01*
X414772Y338160D01*
X108556D01*
X107734Y339585D01*
X105934Y341384D01*
X103731Y342656D01*
X101272Y343315D01*
D02*
G37*
G36*
X901272Y320415D02*
X898728D01*
X896270Y319756D01*
X894065Y318484D01*
X892266Y316684D01*
X890994Y314480D01*
X890867Y314010D01*
X584506D01*
X584154Y314621D01*
X582601Y316174D01*
X580699Y317272D01*
X578578Y317840D01*
X576382D01*
X574261Y317272D01*
X572359Y316174D01*
X570806Y314621D01*
X569708Y312719D01*
X569140Y310598D01*
Y308402D01*
X569708Y306281D01*
X570806Y304379D01*
X572359Y302826D01*
X574261Y301728D01*
X576382Y301160D01*
X578578D01*
X580699Y301728D01*
X582601Y302826D01*
X584154Y304379D01*
X585228Y306240D01*
X891443D01*
X892266Y304816D01*
X894065Y303016D01*
X896270Y301744D01*
X898728Y301085D01*
X901272D01*
X903731Y301744D01*
X905935Y303016D01*
X907734Y304816D01*
X909006Y307020D01*
X909665Y309478D01*
Y312022D01*
X909006Y314480D01*
X907734Y316684D01*
X905935Y318484D01*
X903731Y319756D01*
X901272Y320415D01*
D02*
G37*
G36*
X101272Y317915D02*
X98728D01*
X96270Y317256D01*
X94066Y315984D01*
X92266Y314184D01*
X90994Y311981D01*
X90335Y309522D01*
Y306978D01*
X90994Y304520D01*
X92266Y302316D01*
X94066Y300516D01*
X96270Y299244D01*
X98728Y298585D01*
X101272D01*
X103731Y299244D01*
X105934Y300516D01*
X107734Y302316D01*
X109006Y304520D01*
X109132Y304990D01*
X415494D01*
X415846Y304379D01*
X417399Y302826D01*
X419301Y301728D01*
X421422Y301160D01*
X423618D01*
X425739Y301728D01*
X427641Y302826D01*
X429194Y304379D01*
X430292Y306281D01*
X430860Y308402D01*
Y310598D01*
X430292Y312719D01*
X429194Y314621D01*
X427641Y316174D01*
X425739Y317272D01*
X423618Y317840D01*
X421422D01*
X419301Y317272D01*
X417399Y316174D01*
X415846Y314621D01*
X414772Y312760D01*
X108556D01*
X107734Y314184D01*
X105934Y315984D01*
X103731Y317256D01*
X101272Y317915D01*
D02*
G37*
G36*
X901272Y295015D02*
X898728D01*
X896270Y294356D01*
X894065Y293084D01*
X892266Y291285D01*
X890994Y289081D01*
X890867Y288610D01*
X584506D01*
X584154Y289221D01*
X582601Y290774D01*
X580699Y291872D01*
X578578Y292440D01*
X576382D01*
X574261Y291872D01*
X572359Y290774D01*
X570806Y289221D01*
X569708Y287319D01*
X569140Y285198D01*
Y283002D01*
X569708Y280881D01*
X570806Y278979D01*
X572359Y277426D01*
X574261Y276328D01*
X576382Y275760D01*
X578578D01*
X580699Y276328D01*
X582601Y277426D01*
X584154Y278979D01*
X585228Y280840D01*
X891443D01*
X892266Y279415D01*
X894065Y277616D01*
X896270Y276344D01*
X898728Y275685D01*
X901272D01*
X903731Y276344D01*
X905935Y277616D01*
X907734Y279415D01*
X909006Y281619D01*
X909665Y284078D01*
Y286622D01*
X909006Y289081D01*
X907734Y291285D01*
X905935Y293084D01*
X903731Y294356D01*
X901272Y295015D01*
D02*
G37*
G36*
X101272Y292515D02*
X98728D01*
X96270Y291856D01*
X94066Y290584D01*
X92266Y288785D01*
X90994Y286581D01*
X90335Y284122D01*
Y281578D01*
X90994Y279119D01*
X92266Y276915D01*
X94066Y275116D01*
X96270Y273844D01*
X98728Y273185D01*
X101272D01*
X103731Y273844D01*
X105934Y275116D01*
X107734Y276915D01*
X109006Y279119D01*
X109132Y279590D01*
X415494D01*
X415846Y278979D01*
X417399Y277426D01*
X419301Y276328D01*
X421422Y275760D01*
X423618D01*
X425739Y276328D01*
X427641Y277426D01*
X429194Y278979D01*
X430292Y280881D01*
X430860Y283002D01*
Y285198D01*
X430292Y287319D01*
X429194Y289221D01*
X427641Y290774D01*
X425739Y291872D01*
X423618Y292440D01*
X421422D01*
X419301Y291872D01*
X417399Y290774D01*
X415846Y289221D01*
X414772Y287360D01*
X108556D01*
X107734Y288785D01*
X105934Y290584D01*
X103731Y291856D01*
X101272Y292515D01*
D02*
G37*
G36*
X901272Y269615D02*
X898728D01*
X896270Y268956D01*
X894065Y267684D01*
X892266Y265884D01*
X890994Y263680D01*
X890867Y263210D01*
X584506D01*
X584154Y263821D01*
X582601Y265374D01*
X580699Y266472D01*
X578578Y267040D01*
X576382D01*
X574261Y266472D01*
X572359Y265374D01*
X570806Y263821D01*
X569708Y261919D01*
X569140Y259798D01*
Y257602D01*
X569708Y255481D01*
X570806Y253579D01*
X572359Y252026D01*
X574261Y250928D01*
X576382Y250360D01*
X578578D01*
X580699Y250928D01*
X582601Y252026D01*
X584154Y253579D01*
X585228Y255440D01*
X891443D01*
X892266Y254016D01*
X894065Y252216D01*
X896270Y250944D01*
X898728Y250285D01*
X901272D01*
X903731Y250944D01*
X905935Y252216D01*
X907734Y254016D01*
X909006Y256220D01*
X909665Y258678D01*
Y261222D01*
X909006Y263680D01*
X907734Y265884D01*
X905935Y267684D01*
X903731Y268956D01*
X901272Y269615D01*
D02*
G37*
G36*
X109665Y267115D02*
X90335D01*
Y247785D01*
X109665D01*
Y254815D01*
X415133D01*
X415846Y253579D01*
X417399Y252026D01*
X419301Y250928D01*
X421422Y250360D01*
X423618D01*
X425739Y250928D01*
X427641Y252026D01*
X429194Y253579D01*
X430292Y255481D01*
X430860Y257602D01*
Y259798D01*
X430292Y261919D01*
X429194Y263821D01*
X427641Y265374D01*
X425739Y266472D01*
X423618Y267040D01*
X421422D01*
X419301Y266472D01*
X417399Y265374D01*
X415846Y263821D01*
X415133Y262585D01*
X109665D01*
Y267115D01*
D02*
G37*
G36*
X101272Y419515D02*
X98728D01*
X96270Y418856D01*
X94066Y417584D01*
X92266Y415784D01*
X90994Y413581D01*
X90335Y411122D01*
Y408578D01*
X90994Y406119D01*
X92266Y403915D01*
X94066Y402116D01*
X96270Y400844D01*
X98728Y400185D01*
X101272D01*
X103731Y400844D01*
X105934Y402116D01*
X107734Y403915D01*
X109006Y406119D01*
X109132Y406590D01*
X415494D01*
X415846Y405979D01*
X417399Y404426D01*
X419301Y403328D01*
X421422Y402760D01*
X423618D01*
X424997Y403130D01*
X478865Y349261D01*
Y223109D01*
X415851Y160095D01*
X341700D01*
Y168750D01*
X281620D01*
Y143670D01*
X307775D01*
Y101150D01*
X302370D01*
Y86570D01*
X320950D01*
Y101150D01*
X315545D01*
Y143670D01*
X341700D01*
Y152325D01*
X417460D01*
X418947Y152621D01*
X420207Y153463D01*
X485497Y218753D01*
X486339Y220013D01*
X486635Y221500D01*
Y350870D01*
X486339Y352357D01*
X485497Y353617D01*
X430490Y408623D01*
X430860Y410002D01*
Y412198D01*
X430292Y414319D01*
X429194Y416221D01*
X427641Y417774D01*
X425739Y418872D01*
X423618Y419440D01*
X421422D01*
X419301Y418872D01*
X417399Y417774D01*
X415846Y416221D01*
X414772Y414360D01*
X108556D01*
X107734Y415784D01*
X105934Y417584D01*
X103731Y418856D01*
X101272Y419515D01*
D02*
G37*
G36*
X1003151Y40040D02*
X996849D01*
X990624Y39054D01*
X984630Y37106D01*
X979015Y34245D01*
X973916Y30541D01*
X969459Y26084D01*
X965755Y20986D01*
X962894Y15370D01*
X960946Y9376D01*
X959960Y3151D01*
Y-3151D01*
X960946Y-9376D01*
X962894Y-15370D01*
X965755Y-20986D01*
X969459Y-26084D01*
X973916Y-30541D01*
X979015Y-34245D01*
X984630Y-37106D01*
X990624Y-39054D01*
X996849Y-40040D01*
X1003151D01*
X1009376Y-39054D01*
X1015370Y-37106D01*
X1020985Y-34245D01*
X1026084Y-30541D01*
X1030541Y-26084D01*
X1034245Y-20986D01*
X1037106Y-15370D01*
X1039054Y-9376D01*
X1040040Y-3151D01*
Y3151D01*
X1039054Y9376D01*
X1037106Y15370D01*
X1034245Y20986D01*
X1030541Y26084D01*
X1026084Y30541D01*
X1020985Y34245D01*
X1015370Y37106D01*
X1009376Y39054D01*
X1003151Y40040D01*
D02*
G37*
G36*
X3151D02*
X-3151D01*
X-9376Y39054D01*
X-15370Y37106D01*
X-20986Y34245D01*
X-26084Y30541D01*
X-30541Y26084D01*
X-34245Y20986D01*
X-37106Y15370D01*
X-39054Y9376D01*
X-40040Y3151D01*
Y-3151D01*
X-39054Y-9376D01*
X-37106Y-15370D01*
X-34245Y-20986D01*
X-30541Y-26084D01*
X-26084Y-30541D01*
X-20986Y-34245D01*
X-15370Y-37106D01*
X-9376Y-39054D01*
X-3151Y-40040D01*
X3151D01*
X9376Y-39054D01*
X15370Y-37106D01*
X20986Y-34245D01*
X26084Y-30541D01*
X30541Y-26084D01*
X34245Y-20986D01*
X37106Y-15370D01*
X39054Y-9376D01*
X40040Y-3151D01*
Y3151D01*
X39054Y9376D01*
X37106Y15370D01*
X34245Y20986D01*
X30541Y26084D01*
X26084Y30541D01*
X20986Y34245D01*
X15370Y37106D01*
X9376Y39054D01*
X3151Y40040D01*
D02*
G37*
%LPD*%
G36*
X544250Y1017000D02*
Y973000D01*
X568750Y948500D01*
X714750D01*
X751750Y985500D01*
X897250D01*
X928250Y954500D01*
Y935500D01*
X917750Y925000D01*
X206000D01*
X173250Y892250D01*
Y750250D01*
X151250Y728250D01*
X53404D01*
X35000Y750250D01*
Y913000D01*
X70500Y948500D01*
X426250D01*
X451750Y974000D01*
Y1017000D01*
X463500Y1028750D01*
X532500D01*
X544250Y1017000D01*
D02*
G37*
G36*
X459750Y838250D02*
Y747250D01*
X440750Y728250D01*
X404520D01*
X387000Y747250D01*
Y818250D01*
X347750Y857500D01*
X291500D01*
X281500Y866500D01*
Y886000D01*
X291500Y896000D01*
X402000D01*
X459750Y838250D01*
D02*
G37*
D11*
X370500Y482750D02*
X416184D01*
X420734Y487300D01*
X367500Y479750D02*
X370500Y482750D01*
X420734Y487300D02*
X460050D01*
X103123Y482927D02*
X360873Y482927D01*
X101770Y484280D02*
X103123Y482927D01*
X100000Y486050D02*
X101770Y484280D01*
X900000Y539350D02*
X955100D01*
X897497D02*
X900000D01*
X895647Y537500D02*
X897497Y539350D01*
X635250Y537500D02*
X895647D01*
X632500Y534750D02*
X635250Y537500D01*
X629250Y538000D02*
X632500Y534750D01*
X625321Y538100D02*
X625421Y538000D01*
X577480Y538100D02*
X625321D01*
X625421Y538000D02*
X629250D01*
X510850Y538100D02*
X577480D01*
X68500Y771550D02*
X100000Y740050D01*
X68500Y771550D02*
Y855750D01*
X150010Y937260D01*
X100000Y740050D02*
X131050D01*
X165000Y774000D02*
Y869750D01*
X131050Y740050D02*
X165000Y774000D01*
X183000Y869750D02*
X224000D01*
X460050Y487300D02*
X510850Y538100D01*
X350000Y994250D02*
X413500Y1057750D01*
X347085Y991335D02*
X350000Y994250D01*
X150010Y937260D02*
X500000D01*
X851000Y1057750D02*
X953250Y955500D01*
X413500Y1057750D02*
X851000D01*
X953250Y928000D02*
Y955500D01*
X937110Y911860D02*
X953250Y928000D01*
X900000Y911860D02*
X937110D01*
X500000Y937260D02*
X900000D01*
X500000D02*
Y994250D01*
X955100Y539350D02*
X1020250Y604500D01*
Y791610D01*
X900000Y911860D02*
X1020250Y791610D01*
D14*
X309000Y869750D02*
X372750D01*
X422520Y819980D01*
Y741300D02*
Y819980D01*
X900000Y810260D02*
X952240D01*
X952650Y717150D02*
X963000Y727500D01*
X881000Y770500D02*
X946250D01*
X927450Y640950D02*
X982500Y696000D01*
Y780000D01*
X900000Y717150D02*
X952650D01*
X963000Y727500D02*
Y753750D01*
X946250Y770500D02*
X963000Y753750D01*
X952240Y810260D02*
X982500Y780000D01*
X899375Y716525D02*
X900000Y717150D01*
X577480Y741300D02*
X603430Y767250D01*
X761500D01*
X855310Y861060D01*
X900000D01*
X866750Y784750D02*
X881000Y770500D01*
X866750Y784750D02*
Y827000D01*
X875410Y835660D01*
X900000D01*
Y640950D02*
X927450D01*
X577480Y258700D02*
X578105Y259325D01*
X899375D01*
X900000Y259950D01*
X578105Y284725D02*
X899375D01*
X577480Y284100D02*
X578105Y284725D01*
X899375D02*
X900000Y285350D01*
X899375Y310125D02*
X900000Y310750D01*
X577480Y309500D02*
X578105Y310125D01*
X899375D01*
Y335525D02*
X900000Y336150D01*
X577480Y334900D02*
X578105Y335525D01*
X899375D01*
X577480Y360300D02*
X578105Y360925D01*
X899375D01*
X900000Y361550D01*
X899375Y386325D02*
X900000Y386950D01*
X577480Y385700D02*
X578105Y386325D01*
X899375D01*
X577480Y411100D02*
X578105Y411725D01*
X899375D01*
X900000Y412350D01*
X578105Y437125D02*
X899375D01*
X900000Y437750D01*
X577480Y436500D02*
X578105Y437125D01*
X577480Y461900D02*
X578105Y462525D01*
X899375D01*
X900000Y463150D01*
X578105Y487925D02*
X899375D01*
X900000Y488550D01*
X577480Y487300D02*
X578105Y487925D01*
X577480Y639700D02*
X578105Y640325D01*
X899375D01*
X900000Y640950D01*
X578105Y665725D02*
X899375D01*
X900000Y666350D01*
X577480Y665100D02*
X578105Y665725D01*
X899375Y691125D02*
X900000Y691750D01*
X577480Y690500D02*
X578105Y691125D01*
X899375D01*
X577480Y715900D02*
X578105Y716525D01*
X899375D01*
X898750Y741300D02*
X900000Y742550D01*
X577480Y741300D02*
X898750D01*
X578105Y614925D02*
X899375D01*
X577480Y614300D02*
X578105Y614925D01*
X899375D02*
X900000Y615550D01*
X578105Y589525D02*
X899375D01*
X577480Y588900D02*
X578105Y589525D01*
X899375D02*
X900000Y590150D01*
X578105Y564125D02*
X899375D01*
X577480Y563500D02*
X578105Y564125D01*
X899375D02*
X900000Y564750D01*
X216660Y78860D02*
X233270Y62250D01*
X295050D02*
X311660Y78860D01*
X233270Y62250D02*
X295050D01*
X216660Y93860D02*
Y156210D01*
X311660Y93860D02*
Y156210D01*
X422520Y411100D02*
X482750Y350870D01*
Y221500D02*
Y350870D01*
X417460Y156210D02*
X482750Y221500D01*
X311660Y156210D02*
X417460D01*
X36500Y212000D02*
Y371750D01*
X92290Y156210D02*
X216660D01*
X36500Y371750D02*
X100000Y435250D01*
X36500Y212000D02*
X92290Y156210D01*
X101250Y258700D02*
X422520D01*
X100000Y257450D02*
X101250Y258700D01*
X100625Y283475D02*
X421895D01*
X422520Y284100D01*
X100000Y282850D02*
X100625Y283475D01*
Y308875D02*
X421895D01*
X422520Y309500D01*
X100000Y308250D02*
X100625Y308875D01*
X421895Y334275D02*
X422520Y334900D01*
X100000Y333650D02*
X100625Y334275D01*
X421895D01*
X100000Y359050D02*
X100625Y359675D01*
X421895D01*
X422520Y360300D01*
X100000Y384450D02*
X100625Y385075D01*
X421895D01*
X422520Y385700D01*
X100625Y410475D02*
X421895D01*
X100000Y409850D02*
X100625Y410475D01*
X421895D02*
X422520Y411100D01*
X100625Y435875D02*
X421895D01*
X422520Y436500D01*
X100000Y435250D02*
X100625Y435875D01*
Y512075D02*
X421895D01*
X100000Y511450D02*
X100625Y512075D01*
X421895D02*
X422520Y512700D01*
X421895Y537475D02*
X422520Y538100D01*
X100000Y536850D02*
X100625Y537475D01*
X421895D01*
X100625Y562875D02*
X421895D01*
X100000Y562250D02*
X100625Y562875D01*
X421895D02*
X422520Y563500D01*
X100625Y588275D02*
X421895D01*
X100000Y587650D02*
X100625Y588275D01*
X421895D02*
X422520Y588900D01*
X421895Y613675D02*
X422520Y614300D01*
X100000Y613050D02*
X100625Y613675D01*
X421895D01*
X100625Y639075D02*
X421895D01*
X100000Y638450D02*
X100625Y639075D01*
X421895D02*
X422520Y639700D01*
X100625Y664475D02*
X421895D01*
X100000Y663850D02*
X100625Y664475D01*
X421895D02*
X422520Y665100D01*
X100000Y689250D02*
X100625Y689875D01*
X421895D01*
X422520Y690500D01*
X421895Y715275D02*
X422520Y715900D01*
X100000Y714650D02*
X100625Y715275D01*
X421895D01*
D15*
X650000Y994250D02*
D03*
X500000D02*
D03*
X350000D02*
D03*
D16*
X367500Y479750D02*
D03*
Y465250D02*
D03*
X632500Y534750D02*
D03*
Y520250D02*
D03*
D17*
X311660Y156210D02*
D03*
X216660D02*
D03*
D18*
X311660Y78860D02*
D03*
Y93860D02*
D03*
X216660Y78860D02*
D03*
Y93860D02*
D03*
D19*
X183000Y869750D02*
D03*
X165000D02*
D03*
D20*
X309000Y824750D02*
D03*
X224000D02*
D03*
X309000Y869750D02*
D03*
X224000D02*
D03*
D33*
X900000Y810260D02*
D03*
D34*
Y835660D02*
D03*
Y861060D02*
D03*
Y886460D02*
D03*
Y911860D02*
D03*
Y937260D02*
D03*
D35*
Y742550D02*
D03*
X100000Y257450D02*
D03*
D36*
X900000Y717150D02*
D03*
Y691750D02*
D03*
Y666350D02*
D03*
Y640950D02*
D03*
Y615550D02*
D03*
Y590150D02*
D03*
Y564750D02*
D03*
Y539350D02*
D03*
Y513950D02*
D03*
Y488550D02*
D03*
Y463150D02*
D03*
Y437750D02*
D03*
Y412350D02*
D03*
Y386950D02*
D03*
Y361550D02*
D03*
Y336150D02*
D03*
Y310750D02*
D03*
Y285350D02*
D03*
Y259950D02*
D03*
X100000Y282850D02*
D03*
Y308250D02*
D03*
Y333650D02*
D03*
Y359050D02*
D03*
Y384450D02*
D03*
Y409850D02*
D03*
Y435250D02*
D03*
Y460650D02*
D03*
Y486050D02*
D03*
Y511450D02*
D03*
Y536850D02*
D03*
Y562250D02*
D03*
Y587650D02*
D03*
Y613050D02*
D03*
Y638450D02*
D03*
Y663850D02*
D03*
Y689250D02*
D03*
Y714650D02*
D03*
Y740050D02*
D03*
D37*
X422520Y741300D02*
D03*
D38*
Y715900D02*
D03*
Y690500D02*
D03*
Y665100D02*
D03*
Y639700D02*
D03*
Y614300D02*
D03*
Y588900D02*
D03*
Y563500D02*
D03*
Y538100D02*
D03*
Y512700D02*
D03*
Y487300D02*
D03*
Y461900D02*
D03*
Y436500D02*
D03*
Y411100D02*
D03*
Y385700D02*
D03*
Y360300D02*
D03*
Y334900D02*
D03*
Y309500D02*
D03*
Y284100D02*
D03*
Y258700D02*
D03*
X577480D02*
D03*
Y284100D02*
D03*
Y309500D02*
D03*
Y334900D02*
D03*
Y360300D02*
D03*
Y385700D02*
D03*
Y411100D02*
D03*
Y436500D02*
D03*
Y461900D02*
D03*
Y487300D02*
D03*
Y512700D02*
D03*
Y538100D02*
D03*
Y563500D02*
D03*
Y588900D02*
D03*
Y614300D02*
D03*
Y639700D02*
D03*
Y665100D02*
D03*
Y690500D02*
D03*
Y715900D02*
D03*
Y741300D02*
D03*
D39*
X1000000Y0D02*
D03*
X-0D02*
D03*
X1000000Y1000000D02*
D03*
X0Y1000000D02*
D03*
M02*
