G04*
G04 #@! TF.GenerationSoftware,Altium Limited,Altium Designer,24.1.2 (44)*
G04*
G04 Layer_Color=2752767*
%FSLAX44Y44*%
%MOMM*%
G71*
G04*
G04 #@! TF.SameCoordinates,A8F9B381-EDA8-4368-A6AD-9EAFAD04DD4A*
G04*
G04*
G04 #@! TF.FilePolarity,Positive*
G04*
G01*
G75*
%ADD41C,0.1270*%
%ADD42C,0.1693*%
D41*
X900000Y805180D02*
X894920Y815340D01*
X905080D01*
X900000Y805180D01*
Y830580D02*
X894920Y840740D01*
X905080D01*
X900000Y830580D01*
Y855980D02*
X894920Y866140D01*
X905080D01*
X900000Y855980D01*
Y881380D02*
X894920Y891540D01*
X905080D01*
X900000Y881380D01*
Y906780D02*
X894920Y916940D01*
X905080D01*
X900000Y906780D01*
Y932180D02*
X894920Y942340D01*
X905080D01*
X900000Y932180D01*
X894920Y737470D02*
Y747630D01*
X905080D01*
Y737470D01*
X894920D01*
Y712070D02*
Y722230D01*
X905080D01*
Y712070D01*
X894920D01*
Y686670D02*
Y696830D01*
X905080D01*
Y686670D01*
X894920D01*
Y661270D02*
Y671430D01*
X905080D01*
Y661270D01*
X894920D01*
Y635870D02*
Y646030D01*
X905080D01*
Y635870D01*
X894920D01*
Y610470D02*
Y620630D01*
X905080D01*
Y610470D01*
X894920D01*
Y585070D02*
Y595230D01*
X905080D01*
Y585070D01*
X894920D01*
Y559670D02*
Y569830D01*
X905080D01*
Y559670D01*
X894920D01*
Y534270D02*
Y544430D01*
X905080D01*
Y534270D01*
X894920D01*
Y508870D02*
Y519030D01*
X905080D01*
Y508870D01*
X894920D01*
Y483470D02*
Y493630D01*
X905080D01*
Y483470D01*
X894920D01*
Y458070D02*
Y468230D01*
X905080D01*
Y458070D01*
X894920D01*
Y432670D02*
Y442830D01*
X905080D01*
Y432670D01*
X894920D01*
Y407270D02*
Y417430D01*
X905080D01*
Y407270D01*
X894920D01*
Y381870D02*
Y392030D01*
X905080D01*
Y381870D01*
X894920D01*
Y356470D02*
Y366630D01*
X905080D01*
Y356470D01*
X894920D01*
Y331070D02*
Y341230D01*
X905080D01*
Y331070D01*
X894920D01*
Y305670D02*
Y315830D01*
X905080D01*
Y305670D01*
X894920D01*
Y280270D02*
Y290430D01*
X905080D01*
Y280270D01*
X894920D01*
Y254870D02*
Y265030D01*
X905080D01*
Y254870D01*
X894920D01*
X94920Y252370D02*
Y262530D01*
X105080D01*
Y252370D01*
X94920D01*
Y277770D02*
Y287930D01*
X105080D01*
Y277770D01*
X94920D01*
Y303170D02*
Y313330D01*
X105080D01*
Y303170D01*
X94920D01*
Y328570D02*
Y338730D01*
X105080D01*
Y328570D01*
X94920D01*
Y353970D02*
Y364130D01*
X105080D01*
Y353970D01*
X94920D01*
Y379370D02*
Y389530D01*
X105080D01*
Y379370D01*
X94920D01*
Y404770D02*
Y414930D01*
X105080D01*
Y404770D01*
X94920D01*
Y430170D02*
Y440330D01*
X105080D01*
Y430170D01*
X94920D01*
Y455570D02*
Y465730D01*
X105080D01*
Y455570D01*
X94920D01*
Y480970D02*
Y491130D01*
X105080D01*
Y480970D01*
X94920D01*
Y506370D02*
Y516530D01*
X105080D01*
Y506370D01*
X94920D01*
Y531770D02*
Y541930D01*
X105080D01*
Y531770D01*
X94920D01*
Y557170D02*
Y567330D01*
X105080D01*
Y557170D01*
X94920D01*
Y582570D02*
Y592730D01*
X105080D01*
Y582570D01*
X94920D01*
Y607970D02*
Y618130D01*
X105080D01*
Y607970D01*
X94920D01*
Y633370D02*
Y643530D01*
X105080D01*
Y633370D01*
X94920D01*
Y658770D02*
Y668930D01*
X105080D01*
Y658770D01*
X94920D01*
Y684170D02*
Y694330D01*
X105080D01*
Y684170D01*
X94920D01*
Y709570D02*
Y719730D01*
X105080D01*
Y709570D01*
X94920D01*
Y734970D02*
Y745130D01*
X105080D01*
Y734970D01*
X94920D01*
X994920Y-5080D02*
X997460Y0D01*
X994920Y5080D01*
X1000000Y2540D01*
X1005080Y5080D01*
X1002540Y0D01*
X1005080Y-5080D01*
X1000000Y-2540D01*
X994920Y-5080D01*
X-5080D02*
X-2540Y0D01*
X-5080Y5080D01*
X-0Y2540D01*
X5080Y5080D01*
X2540Y0D01*
X5080Y-5080D01*
X-0Y-2540D01*
X-5080Y-5080D01*
X994920Y994920D02*
X997460Y1000000D01*
X994920Y1005080D01*
X1000000Y1002540D01*
X1005080Y1005080D01*
X1002540Y1000000D01*
X1005080Y994920D01*
X1000000Y997460D01*
X994920Y994920D01*
X-5080Y994920D02*
X-2540Y1000000D01*
X-5080Y1005080D01*
X0Y1002540D01*
X5080Y1005080D01*
X2540Y1000000D01*
X5080Y994920D01*
X0Y997460D01*
X-5080Y994920D01*
D42*
X427600Y741300D02*
G03*
X427600Y741300I-5080J0D01*
G01*
Y715900D02*
G03*
X427600Y715900I-5080J0D01*
G01*
Y690500D02*
G03*
X427600Y690500I-5080J0D01*
G01*
Y665100D02*
G03*
X427600Y665100I-5080J0D01*
G01*
Y639700D02*
G03*
X427600Y639700I-5080J0D01*
G01*
Y614300D02*
G03*
X427600Y614300I-5080J0D01*
G01*
Y588900D02*
G03*
X427600Y588900I-5080J0D01*
G01*
Y563500D02*
G03*
X427600Y563500I-5080J0D01*
G01*
Y538100D02*
G03*
X427600Y538100I-5080J0D01*
G01*
Y512700D02*
G03*
X427600Y512700I-5080J0D01*
G01*
Y487300D02*
G03*
X427600Y487300I-5080J0D01*
G01*
Y461900D02*
G03*
X427600Y461900I-5080J0D01*
G01*
Y436500D02*
G03*
X427600Y436500I-5080J0D01*
G01*
Y411100D02*
G03*
X427600Y411100I-5080J0D01*
G01*
Y385700D02*
G03*
X427600Y385700I-5080J0D01*
G01*
Y360300D02*
G03*
X427600Y360300I-5080J0D01*
G01*
Y334900D02*
G03*
X427600Y334900I-5080J0D01*
G01*
Y309500D02*
G03*
X427600Y309500I-5080J0D01*
G01*
Y284100D02*
G03*
X427600Y284100I-5080J0D01*
G01*
Y258700D02*
G03*
X427600Y258700I-5080J0D01*
G01*
X582560D02*
G03*
X582560Y258700I-5080J0D01*
G01*
Y284100D02*
G03*
X582560Y284100I-5080J0D01*
G01*
Y309500D02*
G03*
X582560Y309500I-5080J0D01*
G01*
Y334900D02*
G03*
X582560Y334900I-5080J0D01*
G01*
Y360300D02*
G03*
X582560Y360300I-5080J0D01*
G01*
Y385700D02*
G03*
X582560Y385700I-5080J0D01*
G01*
Y411100D02*
G03*
X582560Y411100I-5080J0D01*
G01*
Y436500D02*
G03*
X582560Y436500I-5080J0D01*
G01*
Y461900D02*
G03*
X582560Y461900I-5080J0D01*
G01*
Y487300D02*
G03*
X582560Y487300I-5080J0D01*
G01*
Y512700D02*
G03*
X582560Y512700I-5080J0D01*
G01*
Y538100D02*
G03*
X582560Y538100I-5080J0D01*
G01*
Y563500D02*
G03*
X582560Y563500I-5080J0D01*
G01*
Y588900D02*
G03*
X582560Y588900I-5080J0D01*
G01*
Y614300D02*
G03*
X582560Y614300I-5080J0D01*
G01*
Y639700D02*
G03*
X582560Y639700I-5080J0D01*
G01*
Y665100D02*
G03*
X582560Y665100I-5080J0D01*
G01*
Y690500D02*
G03*
X582560Y690500I-5080J0D01*
G01*
Y715900D02*
G03*
X582560Y715900I-5080J0D01*
G01*
Y741300D02*
G03*
X582560Y741300I-5080J0D01*
G01*
M02*
