G04*
G04 #@! TF.GenerationSoftware,Altium Limited,Altium Designer,24.1.2 (44)*
G04*
G04 Layer_Color=128*
%FSLAX44Y44*%
%MOMM*%
G71*
G04*
G04 #@! TF.SameCoordinates,A8F9B381-EDA8-4368-A6AD-9EAFAD04DD4A*
G04*
G04*
G04 #@! TF.FilePolarity,Positive*
G04*
G01*
G75*
%ADD41C,0.1270*%
D41*
X894250Y810260D02*
X905750D01*
X900000Y804510D02*
Y816010D01*
X894250Y835660D02*
X905750D01*
X900000Y829910D02*
Y841410D01*
X894250Y861060D02*
X905750D01*
X900000Y855310D02*
Y866810D01*
X894250Y886460D02*
X905750D01*
X900000Y880710D02*
Y892210D01*
X894250Y911860D02*
X905750D01*
X900000Y906110D02*
Y917610D01*
X894250Y937260D02*
X905750D01*
X900000Y931510D02*
Y943010D01*
X895250Y742550D02*
X904750D01*
X900000Y737800D02*
Y747300D01*
X895250Y717150D02*
X904750D01*
X900000Y712400D02*
Y721900D01*
X895250Y691750D02*
X904750D01*
X900000Y687000D02*
Y696500D01*
X895250Y666350D02*
X904750D01*
X900000Y661600D02*
Y671100D01*
X895250Y640950D02*
X904750D01*
X900000Y636200D02*
Y645700D01*
X895250Y615550D02*
X904750D01*
X900000Y610800D02*
Y620300D01*
X895250Y590150D02*
X904750D01*
X900000Y585400D02*
Y594900D01*
X895250Y564750D02*
X904750D01*
X900000Y560000D02*
Y569500D01*
X895250Y539350D02*
X904750D01*
X900000Y534600D02*
Y544100D01*
X895250Y513950D02*
X904750D01*
X900000Y509200D02*
Y518700D01*
X895250Y488550D02*
X904750D01*
X900000Y483800D02*
Y493300D01*
X895250Y463150D02*
X904750D01*
X900000Y458400D02*
Y467900D01*
X895250Y437750D02*
X904750D01*
X900000Y433000D02*
Y442500D01*
X895250Y412350D02*
X904750D01*
X900000Y407600D02*
Y417100D01*
X895250Y386950D02*
X904750D01*
X900000Y382200D02*
Y391700D01*
X895250Y361550D02*
X904750D01*
X900000Y356800D02*
Y366300D01*
X895250Y336150D02*
X904750D01*
X900000Y331400D02*
Y340900D01*
X895250Y310750D02*
X904750D01*
X900000Y306000D02*
Y315500D01*
X895250Y285350D02*
X904750D01*
X900000Y280600D02*
Y290100D01*
X895250Y259950D02*
X904750D01*
X900000Y255200D02*
Y264700D01*
X95250Y257450D02*
X104750D01*
X100000Y252700D02*
Y262200D01*
X95250Y282850D02*
X104750D01*
X100000Y278100D02*
Y287600D01*
X95250Y308250D02*
X104750D01*
X100000Y303500D02*
Y313000D01*
X95250Y333650D02*
X104750D01*
X100000Y328900D02*
Y338400D01*
X95250Y359050D02*
X104750D01*
X100000Y354300D02*
Y363800D01*
X95250Y384450D02*
X104750D01*
X100000Y379700D02*
Y389200D01*
X95250Y409850D02*
X104750D01*
X100000Y405100D02*
Y414600D01*
X95250Y435250D02*
X104750D01*
X100000Y430500D02*
Y440000D01*
X95250Y460650D02*
X104750D01*
X100000Y455900D02*
Y465400D01*
X95250Y486050D02*
X104750D01*
X100000Y481300D02*
Y490800D01*
X95250Y511450D02*
X104750D01*
X100000Y506700D02*
Y516200D01*
X95250Y536850D02*
X104750D01*
X100000Y532100D02*
Y541600D01*
X95250Y562250D02*
X104750D01*
X100000Y557500D02*
Y567000D01*
X95250Y587650D02*
X104750D01*
X100000Y582900D02*
Y592400D01*
X95250Y613050D02*
X104750D01*
X100000Y608300D02*
Y617800D01*
X95250Y638450D02*
X104750D01*
X100000Y633700D02*
Y643200D01*
X95250Y663850D02*
X104750D01*
X100000Y659100D02*
Y668600D01*
X95250Y689250D02*
X104750D01*
X100000Y684500D02*
Y694000D01*
X95250Y714650D02*
X104750D01*
X100000Y709900D02*
Y719400D01*
X95250Y740050D02*
X104750D01*
X100000Y735300D02*
Y744800D01*
X418720Y741300D02*
X426320D01*
X422520Y737500D02*
Y745100D01*
X418720Y715900D02*
X426320D01*
X422520Y712100D02*
Y719700D01*
X418720Y690500D02*
X426320D01*
X422520Y686700D02*
Y694300D01*
X418720Y665100D02*
X426320D01*
X422520Y661300D02*
Y668900D01*
X418720Y639700D02*
X426320D01*
X422520Y635900D02*
Y643500D01*
X418720Y614300D02*
X426320D01*
X422520Y610500D02*
Y618100D01*
X418720Y588900D02*
X426320D01*
X422520Y585100D02*
Y592700D01*
X418720Y563500D02*
X426320D01*
X422520Y559700D02*
Y567300D01*
X418720Y538100D02*
X426320D01*
X422520Y534300D02*
Y541900D01*
X418720Y512700D02*
X426320D01*
X422520Y508900D02*
Y516500D01*
X418720Y487300D02*
X426320D01*
X422520Y483500D02*
Y491100D01*
X418720Y461900D02*
X426320D01*
X422520Y458100D02*
Y465700D01*
X418720Y436500D02*
X426320D01*
X422520Y432700D02*
Y440300D01*
X418720Y411100D02*
X426320D01*
X422520Y407300D02*
Y414900D01*
X418720Y385700D02*
X426320D01*
X422520Y381900D02*
Y389500D01*
X418720Y360300D02*
X426320D01*
X422520Y356500D02*
Y364100D01*
X418720Y334900D02*
X426320D01*
X422520Y331100D02*
Y338700D01*
X418720Y309500D02*
X426320D01*
X422520Y305700D02*
Y313300D01*
X418720Y284100D02*
X426320D01*
X422520Y280300D02*
Y287900D01*
X418720Y258700D02*
X426320D01*
X422520Y254900D02*
Y262500D01*
X573680Y258700D02*
X581280D01*
X577480Y254900D02*
Y262500D01*
X573680Y284100D02*
X581280D01*
X577480Y280300D02*
Y287900D01*
X573680Y309500D02*
X581280D01*
X577480Y305700D02*
Y313300D01*
X573680Y334900D02*
X581280D01*
X577480Y331100D02*
Y338700D01*
X573680Y360300D02*
X581280D01*
X577480Y356500D02*
Y364100D01*
X573680Y385700D02*
X581280D01*
X577480Y381900D02*
Y389500D01*
X573680Y411100D02*
X581280D01*
X577480Y407300D02*
Y414900D01*
X573680Y436500D02*
X581280D01*
X577480Y432700D02*
Y440300D01*
X573680Y461900D02*
X581280D01*
X577480Y458100D02*
Y465700D01*
X573680Y487300D02*
X581280D01*
X577480Y483500D02*
Y491100D01*
X573680Y512700D02*
X581280D01*
X577480Y508900D02*
Y516500D01*
X573680Y538100D02*
X581280D01*
X577480Y534300D02*
Y541900D01*
X573680Y563500D02*
X581280D01*
X577480Y559700D02*
Y567300D01*
X573680Y588900D02*
X581280D01*
X577480Y585100D02*
Y592700D01*
X573680Y614300D02*
X581280D01*
X577480Y610500D02*
Y618100D01*
X573680Y639700D02*
X581280D01*
X577480Y635900D02*
Y643500D01*
X573680Y665100D02*
X581280D01*
X577480Y661300D02*
Y668900D01*
X573680Y690500D02*
X581280D01*
X577480Y686700D02*
Y694300D01*
X573680Y715900D02*
X581280D01*
X577480Y712100D02*
Y719700D01*
X573680Y741300D02*
X581280D01*
X577480Y737500D02*
Y745100D01*
X975000Y0D02*
X1025000D01*
X1000000Y-25000D02*
Y25000D01*
X-25000Y0D02*
X25000D01*
X-0Y-25000D02*
Y25000D01*
X975000Y1000000D02*
X1025000D01*
X1000000Y975000D02*
Y1025000D01*
X-25000Y1000000D02*
X25000D01*
X0Y975000D02*
Y1025000D01*
M02*
