M48
;Layer_Color=9474304
;FILE_FORMAT=4:4
METRIC,LZ
;TYPE=PLATED
T01F00S00C0.7600
T02F00S00C0.9500
T03F00S00C1.1500
T04F00S00C5.0000
%
T01
X0057748Y002587
Y002841
Y003095
Y003349
Y003603
Y003857
Y004111
Y004365
Y004619
Y004873
Y005127
Y005381
X0042252
Y005127
Y004873
Y004619
Y004365
Y004111
Y003857
Y003603
Y003349
Y003095
Y002841
Y002587
Y005635
Y005889
Y006143
Y006397
Y006651
Y006905
Y007159
Y007413
X0057748
Y007159
Y006905
Y006651
Y006397
Y006143
Y005889
Y005635
T02
X009Y0025995
Y0028535
Y0031075
Y0033615
Y0036155
Y0038695
Y0041235
Y0043775
Y0046315
Y0048855
Y0051395
Y0053935
X001Y0053685
Y0051145
Y0048605
Y0046065
Y0043525
Y0040985
Y0038445
Y0035905
Y0033365
Y0030825
Y0028285
Y0025745
Y0056225
Y0058765
Y0061305
Y0063845
Y0066385
Y0068925
Y0071465
Y0074005
X009Y0074255
Y0071715
Y0069175
Y0066635
Y0064095
Y0061555
Y0059015
Y0056475
T03
X009Y0081026
Y0083566
Y0086106
Y0088646
Y0091186
Y0093726
T04
X-0Y0
X01
X01Y01
X0Y01
M30
